<?xml version="1.0" encoding="UTF-8"?><svg xmlns="http://www.w3.org/2000/svg" xmlns:xlink="http://www.w3.org/1999/xlink" fill-opacity="1" color-rendering="auto" color-interpolation="auto" text-rendering="auto" stroke="black" stroke-linecap="square" width="510" stroke-miterlimit="10" shape-rendering="auto" stroke-opacity="1" fill="black" stroke-dasharray="none" font-weight="normal" stroke-width="1" height="510" font-family="'Dialog'" font-style="normal" stroke-linejoin="miter" font-size="12px" stroke-dashoffset="0" image-rendering="auto">
  <!--Generated by ySVG 2.5-->
  <defs id="genericDefs"/>
  <g>
    <defs id="defs1">
      <linearGradient x1="115" gradientUnits="userSpaceOnUse" x2="135" y1="165" y2="165" id="linearGradient1" spreadMethod="reflect">
        <stop stop-opacity="1" stop-color="white" offset="0%"/>
        <stop stop-opacity="1" stop-color="white" offset="100%"/>
      </linearGradient>
      <linearGradient x1="115" gradientUnits="userSpaceOnUse" x2="135" y1="75" y2="75" id="linearGradient2" spreadMethod="reflect">
        <stop stop-opacity="1" stop-color="white" offset="0%"/>
        <stop stop-opacity="1" stop-color="white" offset="100%"/>
      </linearGradient>
      <linearGradient x1="235" gradientUnits="userSpaceOnUse" x2="255" y1="75" y2="75" id="linearGradient3" spreadMethod="reflect">
        <stop stop-opacity="1" stop-color="white" offset="0%"/>
        <stop stop-opacity="1" stop-color="white" offset="100%"/>
      </linearGradient>
      <linearGradient x1="235" gradientUnits="userSpaceOnUse" x2="255" y1="165" y2="165" id="linearGradient4" spreadMethod="reflect">
        <stop stop-opacity="1" stop-color="white" offset="0%"/>
        <stop stop-opacity="1" stop-color="white" offset="100%"/>
      </linearGradient>
      <linearGradient x1="235" gradientUnits="userSpaceOnUse" x2="255" y1="255" y2="255" id="linearGradient5" spreadMethod="reflect">
        <stop stop-opacity="1" stop-color="white" offset="0%"/>
        <stop stop-opacity="1" stop-color="white" offset="100%"/>
      </linearGradient>
      <linearGradient x1="445" gradientUnits="userSpaceOnUse" x2="465" y1="75" y2="75" id="linearGradient6" spreadMethod="reflect">
        <stop stop-opacity="1" stop-color="white" offset="0%"/>
        <stop stop-opacity="1" stop-color="white" offset="100%"/>
      </linearGradient>
      <linearGradient x1="355" gradientUnits="userSpaceOnUse" x2="375" y1="75" y2="75" id="linearGradient7" spreadMethod="reflect">
        <stop stop-opacity="1" stop-color="white" offset="0%"/>
        <stop stop-opacity="1" stop-color="white" offset="100%"/>
      </linearGradient>
      <linearGradient x1="415" gradientUnits="userSpaceOnUse" x2="435" y1="195" y2="195" id="linearGradient8" spreadMethod="reflect">
        <stop stop-opacity="1" stop-color="white" offset="0%"/>
        <stop stop-opacity="1" stop-color="white" offset="100%"/>
      </linearGradient>
      <linearGradient x1="565" gradientUnits="userSpaceOnUse" x2="585" y1="75" y2="75" id="linearGradient9" spreadMethod="reflect">
        <stop stop-opacity="1" stop-color="white" offset="0%"/>
        <stop stop-opacity="1" stop-color="white" offset="100%"/>
      </linearGradient>
      <linearGradient x1="565" gradientUnits="userSpaceOnUse" x2="585" y1="195" y2="195" id="linearGradient10" spreadMethod="reflect">
        <stop stop-opacity="1" stop-color="white" offset="0%"/>
        <stop stop-opacity="1" stop-color="white" offset="100%"/>
      </linearGradient>
      <linearGradient x1="175" gradientUnits="userSpaceOnUse" x2="195" y1="405" y2="405" id="linearGradient11" spreadMethod="reflect">
        <stop stop-opacity="1" stop-color="white" offset="0%"/>
        <stop stop-opacity="1" stop-color="white" offset="100%"/>
      </linearGradient>
      <linearGradient x1="295" gradientUnits="userSpaceOnUse" x2="315" y1="465" y2="465" id="linearGradient12" spreadMethod="reflect">
        <stop stop-opacity="1" stop-color="white" offset="0%"/>
        <stop stop-opacity="1" stop-color="white" offset="100%"/>
      </linearGradient>
      <linearGradient x1="115" gradientUnits="userSpaceOnUse" x2="135" y1="525" y2="525" id="linearGradient13" spreadMethod="reflect">
        <stop stop-opacity="1" stop-color="white" offset="0%"/>
        <stop stop-opacity="1" stop-color="white" offset="100%"/>
      </linearGradient>
      <linearGradient x1="175" gradientUnits="userSpaceOnUse" x2="195" y1="285" y2="285" id="linearGradient14" spreadMethod="reflect">
        <stop stop-opacity="1" stop-color="white" offset="0%"/>
        <stop stop-opacity="1" stop-color="white" offset="100%"/>
      </linearGradient>
      <linearGradient x1="355" gradientUnits="userSpaceOnUse" x2="375" y1="285" y2="285" id="linearGradient15" spreadMethod="reflect">
        <stop stop-opacity="1" stop-color="white" offset="0%"/>
        <stop stop-opacity="1" stop-color="white" offset="100%"/>
      </linearGradient>
      <linearGradient x1="295" gradientUnits="userSpaceOnUse" x2="315" y1="255" y2="255" id="linearGradient16" spreadMethod="reflect">
        <stop stop-opacity="1" stop-color="white" offset="0%"/>
        <stop stop-opacity="1" stop-color="white" offset="100%"/>
      </linearGradient>
      <linearGradient x1="415" gradientUnits="userSpaceOnUse" x2="435" y1="285" y2="285" id="linearGradient17" spreadMethod="reflect">
        <stop stop-opacity="1" stop-color="white" offset="0%"/>
        <stop stop-opacity="1" stop-color="white" offset="100%"/>
      </linearGradient>
      <linearGradient x1="505" gradientUnits="userSpaceOnUse" x2="525" y1="315" y2="315" id="linearGradient18" spreadMethod="reflect">
        <stop stop-opacity="1" stop-color="white" offset="0%"/>
        <stop stop-opacity="1" stop-color="white" offset="100%"/>
      </linearGradient>
      <linearGradient x1="475" gradientUnits="userSpaceOnUse" x2="495" y1="465" y2="465" id="linearGradient19" spreadMethod="reflect">
        <stop stop-opacity="1" stop-color="white" offset="0%"/>
        <stop stop-opacity="1" stop-color="white" offset="100%"/>
      </linearGradient>
      <linearGradient x1="565" gradientUnits="userSpaceOnUse" x2="585" y1="525" y2="525" id="linearGradient20" spreadMethod="reflect">
        <stop stop-opacity="1" stop-color="white" offset="0%"/>
        <stop stop-opacity="1" stop-color="white" offset="100%"/>
      </linearGradient>
      <linearGradient x1="565" gradientUnits="userSpaceOnUse" x2="585" y1="375" y2="375" id="linearGradient21" spreadMethod="reflect">
        <stop stop-opacity="1" stop-color="white" offset="0%"/>
        <stop stop-opacity="1" stop-color="white" offset="100%"/>
      </linearGradient>
      <linearGradient x1="565" gradientUnits="userSpaceOnUse" x2="585" y1="255" y2="255" id="linearGradient22" spreadMethod="reflect">
        <stop stop-opacity="1" stop-color="white" offset="0%"/>
        <stop stop-opacity="1" stop-color="white" offset="100%"/>
      </linearGradient>
      <linearGradient x1="175" gradientUnits="userSpaceOnUse" x2="195" y1="135" y2="135" id="linearGradient23" spreadMethod="reflect">
        <stop stop-opacity="1" stop-color="white" offset="0%"/>
        <stop stop-opacity="1" stop-color="white" offset="100%"/>
      </linearGradient>
      <clipPath clipPathUnits="userSpaceOnUse" id="clipPath1">
        <path d="M0 0 L510 0 L510 510 L0 510 L0 0 Z"/>
      </clipPath>
      <clipPath clipPathUnits="userSpaceOnUse" id="clipPath2">
        <path d="M90 60 L600 60 L600 570 L90 570 L90 60 Z"/>
      </clipPath>
    </defs>
    <g fill="white" text-rendering="geometricPrecision" shape-rendering="geometricPrecision" transform="translate(-90,-60)" stroke="white">
      <rect x="90" width="510" height="510" y="60" clip-path="url(#clipPath2)" stroke="none"/>
    </g>
    <g fill="url(#linearGradient1)" text-rendering="geometricPrecision" shape-rendering="geometricPrecision" transform="matrix(1,0,0,1,-90,-60)" stroke="url(#linearGradient1)">
      <circle r="15" clip-path="url(#clipPath2)" cx="120" cy="180" stroke="none"/>
    </g>
    <g text-rendering="geometricPrecision" stroke-miterlimit="1.45" shape-rendering="geometricPrecision" font-family="sans-serif" transform="matrix(1,0,0,1,-90,-60)" stroke-linecap="butt">
      <text x="112.3652" xml:space="preserve" y="184.1543" clip-path="url(#clipPath2)" stroke="none">16</text>
      <circle fill="none" r="15" clip-path="url(#clipPath2)" cx="120" cy="180"/>
    </g>
    <g fill="url(#linearGradient2)" text-rendering="geometricPrecision" shape-rendering="geometricPrecision" transform="matrix(1,0,0,1,-90,-60)" stroke="url(#linearGradient2)">
      <circle r="15" clip-path="url(#clipPath2)" cx="120" cy="90" stroke="none"/>
    </g>
    <g text-rendering="geometricPrecision" stroke-miterlimit="1.45" shape-rendering="geometricPrecision" font-family="sans-serif" transform="matrix(1,0,0,1,-90,-60)" stroke-linecap="butt">
      <text x="116.1826" xml:space="preserve" y="94.1543" clip-path="url(#clipPath2)" stroke="none">8</text>
      <circle fill="none" r="15" clip-path="url(#clipPath2)" cx="120" cy="90"/>
    </g>
    <g fill="url(#linearGradient3)" text-rendering="geometricPrecision" shape-rendering="geometricPrecision" transform="matrix(1,0,0,1,-90,-60)" stroke="url(#linearGradient3)">
      <circle r="15" clip-path="url(#clipPath2)" cx="240" cy="90" stroke="none"/>
    </g>
    <g text-rendering="geometricPrecision" stroke-miterlimit="1.45" shape-rendering="geometricPrecision" font-family="sans-serif" transform="matrix(1,0,0,1,-90,-60)" stroke-linecap="butt">
      <text x="236.1826" xml:space="preserve" y="94.1543" clip-path="url(#clipPath2)" stroke="none">5</text>
      <circle fill="none" r="15" clip-path="url(#clipPath2)" cx="240" cy="90"/>
    </g>
    <g fill="url(#linearGradient4)" text-rendering="geometricPrecision" shape-rendering="geometricPrecision" transform="matrix(1,0,0,1,-90,-60)" stroke="url(#linearGradient4)">
      <circle r="15" clip-path="url(#clipPath2)" cx="240" cy="180" stroke="none"/>
    </g>
    <g text-rendering="geometricPrecision" stroke-miterlimit="1.45" shape-rendering="geometricPrecision" font-family="sans-serif" transform="matrix(1,0,0,1,-90,-60)" stroke-linecap="butt">
      <text x="236.1826" xml:space="preserve" y="184.1543" clip-path="url(#clipPath2)" stroke="none">4</text>
      <circle fill="none" r="15" clip-path="url(#clipPath2)" cx="240" cy="180"/>
    </g>
    <g fill="url(#linearGradient5)" text-rendering="geometricPrecision" shape-rendering="geometricPrecision" transform="matrix(1,0,0,1,-90,-60)" stroke="url(#linearGradient5)">
      <circle r="15" clip-path="url(#clipPath2)" cx="240" cy="270" stroke="none"/>
    </g>
    <g text-rendering="geometricPrecision" stroke-miterlimit="1.45" shape-rendering="geometricPrecision" font-family="sans-serif" transform="matrix(1,0,0,1,-90,-60)" stroke-linecap="butt">
      <text x="232.3652" xml:space="preserve" y="274.1543" clip-path="url(#clipPath2)" stroke="none">23</text>
      <circle fill="none" r="15" clip-path="url(#clipPath2)" cx="240" cy="270"/>
    </g>
    <g fill="url(#linearGradient6)" text-rendering="geometricPrecision" shape-rendering="geometricPrecision" transform="matrix(1,0,0,1,-90,-60)" stroke="url(#linearGradient6)">
      <circle r="15" clip-path="url(#clipPath2)" cx="450" cy="90" stroke="none"/>
    </g>
    <g text-rendering="geometricPrecision" stroke-miterlimit="1.45" shape-rendering="geometricPrecision" font-family="sans-serif" transform="matrix(1,0,0,1,-90,-60)" stroke-linecap="butt">
      <text x="442.3652" xml:space="preserve" y="94.1543" clip-path="url(#clipPath2)" stroke="none">13</text>
      <circle fill="none" r="15" clip-path="url(#clipPath2)" cx="450" cy="90"/>
    </g>
    <g fill="url(#linearGradient7)" text-rendering="geometricPrecision" shape-rendering="geometricPrecision" transform="matrix(1,0,0,1,-90,-60)" stroke="url(#linearGradient7)">
      <circle r="15" clip-path="url(#clipPath2)" cx="360" cy="90" stroke="none"/>
    </g>
    <g text-rendering="geometricPrecision" stroke-miterlimit="1.45" shape-rendering="geometricPrecision" font-family="sans-serif" transform="matrix(1,0,0,1,-90,-60)" stroke-linecap="butt">
      <text x="352.3652" xml:space="preserve" y="94.1543" clip-path="url(#clipPath2)" stroke="none">11</text>
      <circle fill="none" r="15" clip-path="url(#clipPath2)" cx="360" cy="90"/>
    </g>
    <g fill="url(#linearGradient8)" text-rendering="geometricPrecision" shape-rendering="geometricPrecision" transform="matrix(1,0,0,1,-90,-60)" stroke="url(#linearGradient8)">
      <circle r="15" clip-path="url(#clipPath2)" cx="420" cy="210" stroke="none"/>
    </g>
    <g text-rendering="geometricPrecision" stroke-miterlimit="1.45" shape-rendering="geometricPrecision" font-family="sans-serif" transform="matrix(1,0,0,1,-90,-60)" stroke-linecap="butt">
      <text x="412.3652" xml:space="preserve" y="214.1543" clip-path="url(#clipPath2)" stroke="none">18</text>
      <circle fill="none" r="15" clip-path="url(#clipPath2)" cx="420" cy="210"/>
    </g>
    <g fill="url(#linearGradient9)" text-rendering="geometricPrecision" shape-rendering="geometricPrecision" transform="matrix(1,0,0,1,-90,-60)" stroke="url(#linearGradient9)">
      <circle r="15" clip-path="url(#clipPath2)" cx="570" cy="90" stroke="none"/>
    </g>
    <g text-rendering="geometricPrecision" stroke-miterlimit="1.45" shape-rendering="geometricPrecision" font-family="sans-serif" transform="matrix(1,0,0,1,-90,-60)" stroke-linecap="butt">
      <text x="566.1826" xml:space="preserve" y="94.1543" clip-path="url(#clipPath2)" stroke="none">9</text>
      <circle fill="none" r="15" clip-path="url(#clipPath2)" cx="570" cy="90"/>
    </g>
    <g fill="url(#linearGradient10)" text-rendering="geometricPrecision" shape-rendering="geometricPrecision" transform="matrix(1,0,0,1,-90,-60)" stroke="url(#linearGradient10)">
      <circle r="15" clip-path="url(#clipPath2)" cx="570" cy="210" stroke="none"/>
    </g>
    <g text-rendering="geometricPrecision" stroke-miterlimit="1.45" shape-rendering="geometricPrecision" font-family="sans-serif" transform="matrix(1,0,0,1,-90,-60)" stroke-linecap="butt">
      <text x="562.3652" xml:space="preserve" y="214.1543" clip-path="url(#clipPath2)" stroke="none">13</text>
      <circle fill="none" r="15" clip-path="url(#clipPath2)" cx="570" cy="210"/>
    </g>
    <g fill="url(#linearGradient11)" text-rendering="geometricPrecision" shape-rendering="geometricPrecision" transform="matrix(1,0,0,1,-90,-60)" stroke="url(#linearGradient11)">
      <circle r="15" clip-path="url(#clipPath2)" cx="180" cy="420" stroke="none"/>
    </g>
    <g text-rendering="geometricPrecision" stroke-miterlimit="1.45" shape-rendering="geometricPrecision" font-family="sans-serif" transform="matrix(1,0,0,1,-90,-60)" stroke-linecap="butt">
      <text x="172.3652" xml:space="preserve" y="424.1543" clip-path="url(#clipPath2)" stroke="none">19</text>
      <circle fill="none" r="15" clip-path="url(#clipPath2)" cx="180" cy="420"/>
    </g>
    <g fill="url(#linearGradient12)" text-rendering="geometricPrecision" shape-rendering="geometricPrecision" transform="matrix(1,0,0,1,-90,-60)" stroke="url(#linearGradient12)">
      <circle r="15" clip-path="url(#clipPath2)" cx="300" cy="480" stroke="none"/>
    </g>
    <g text-rendering="geometricPrecision" stroke-miterlimit="1.45" shape-rendering="geometricPrecision" font-family="sans-serif" transform="matrix(1,0,0,1,-90,-60)" stroke-linecap="butt">
      <text x="292.3652" xml:space="preserve" y="484.1543" clip-path="url(#clipPath2)" stroke="none">32</text>
      <circle fill="none" r="15" clip-path="url(#clipPath2)" cx="300" cy="480"/>
    </g>
    <g fill="url(#linearGradient13)" text-rendering="geometricPrecision" shape-rendering="geometricPrecision" transform="matrix(1,0,0,1,-90,-60)" stroke="url(#linearGradient13)">
      <circle r="15" clip-path="url(#clipPath2)" cx="120" cy="540" stroke="none"/>
    </g>
    <g text-rendering="geometricPrecision" stroke-miterlimit="1.45" shape-rendering="geometricPrecision" font-family="sans-serif" transform="matrix(1,0,0,1,-90,-60)" stroke-linecap="butt">
      <text x="112.3652" xml:space="preserve" y="544.1543" clip-path="url(#clipPath2)" stroke="none">25</text>
      <circle fill="none" r="15" clip-path="url(#clipPath2)" cx="120" cy="540"/>
    </g>
    <g fill="url(#linearGradient14)" text-rendering="geometricPrecision" shape-rendering="geometricPrecision" transform="matrix(1,0,0,1,-90,-60)" stroke="url(#linearGradient14)">
      <circle r="15" clip-path="url(#clipPath2)" cx="180" cy="300" stroke="none"/>
    </g>
    <g text-rendering="geometricPrecision" stroke-miterlimit="1.45" shape-rendering="geometricPrecision" font-family="sans-serif" transform="matrix(1,0,0,1,-90,-60)" stroke-linecap="butt">
      <text x="172.3652" xml:space="preserve" y="304.1543" clip-path="url(#clipPath2)" stroke="none">23</text>
      <circle fill="none" r="15" clip-path="url(#clipPath2)" cx="180" cy="300"/>
    </g>
    <g fill="url(#linearGradient15)" text-rendering="geometricPrecision" shape-rendering="geometricPrecision" transform="matrix(1,0,0,1,-90,-60)" stroke="url(#linearGradient15)">
      <circle r="15" clip-path="url(#clipPath2)" cx="360" cy="300" stroke="none"/>
    </g>
    <g text-rendering="geometricPrecision" stroke-miterlimit="1.45" shape-rendering="geometricPrecision" font-family="sans-serif" transform="matrix(1,0,0,1,-90,-60)" stroke-linecap="butt">
      <text x="352.3652" xml:space="preserve" y="304.1543" clip-path="url(#clipPath2)" stroke="none">15</text>
      <circle fill="none" r="15" clip-path="url(#clipPath2)" cx="360" cy="300"/>
    </g>
    <g fill="url(#linearGradient16)" text-rendering="geometricPrecision" shape-rendering="geometricPrecision" transform="matrix(1,0,0,1,-90,-60)" stroke="url(#linearGradient16)">
      <circle r="15" clip-path="url(#clipPath2)" cx="300" cy="270" stroke="none"/>
    </g>
    <g text-rendering="geometricPrecision" stroke-miterlimit="1.45" shape-rendering="geometricPrecision" font-family="sans-serif" transform="matrix(1,0,0,1,-90,-60)" stroke-linecap="butt">
      <text x="292.3652" xml:space="preserve" y="274.1543" clip-path="url(#clipPath2)" stroke="none">22</text>
      <circle fill="none" r="15" clip-path="url(#clipPath2)" cx="300" cy="270"/>
    </g>
    <g fill="url(#linearGradient17)" text-rendering="geometricPrecision" shape-rendering="geometricPrecision" transform="matrix(1,0,0,1,-90,-60)" stroke="url(#linearGradient17)">
      <circle r="15" clip-path="url(#clipPath2)" cx="420" cy="300" stroke="none"/>
    </g>
    <g text-rendering="geometricPrecision" stroke-miterlimit="1.45" shape-rendering="geometricPrecision" font-family="sans-serif" transform="matrix(1,0,0,1,-90,-60)" stroke-linecap="butt">
      <text x="412.3652" xml:space="preserve" y="304.1543" clip-path="url(#clipPath2)" stroke="none">20</text>
      <circle fill="none" r="15" clip-path="url(#clipPath2)" cx="420" cy="300"/>
    </g>
    <g fill="url(#linearGradient18)" text-rendering="geometricPrecision" shape-rendering="geometricPrecision" transform="matrix(1,0,0,1,-90,-60)" stroke="url(#linearGradient18)">
      <circle r="15" clip-path="url(#clipPath2)" cx="510" cy="330" stroke="none"/>
    </g>
    <g text-rendering="geometricPrecision" stroke-miterlimit="1.45" shape-rendering="geometricPrecision" font-family="sans-serif" transform="matrix(1,0,0,1,-90,-60)" stroke-linecap="butt">
      <text x="502.3652" xml:space="preserve" y="334.1543" clip-path="url(#clipPath2)" stroke="none">13</text>
      <circle fill="none" r="15" clip-path="url(#clipPath2)" cx="510" cy="330"/>
    </g>
    <g fill="url(#linearGradient19)" text-rendering="geometricPrecision" shape-rendering="geometricPrecision" transform="matrix(1,0,0,1,-90,-60)" stroke="url(#linearGradient19)">
      <circle r="15" clip-path="url(#clipPath2)" cx="480" cy="480" stroke="none"/>
    </g>
    <g text-rendering="geometricPrecision" stroke-miterlimit="1.45" shape-rendering="geometricPrecision" font-family="sans-serif" transform="matrix(1,0,0,1,-90,-60)" stroke-linecap="butt">
      <text x="472.3652" xml:space="preserve" y="484.1543" clip-path="url(#clipPath2)" stroke="none">18</text>
      <circle fill="none" r="15" clip-path="url(#clipPath2)" cx="480" cy="480"/>
    </g>
    <g fill="url(#linearGradient20)" text-rendering="geometricPrecision" shape-rendering="geometricPrecision" transform="matrix(1,0,0,1,-90,-60)" stroke="url(#linearGradient20)">
      <circle r="15" clip-path="url(#clipPath2)" cx="570" cy="540" stroke="none"/>
    </g>
    <g text-rendering="geometricPrecision" stroke-miterlimit="1.45" shape-rendering="geometricPrecision" font-family="sans-serif" transform="matrix(1,0,0,1,-90,-60)" stroke-linecap="butt">
      <text x="562.3652" xml:space="preserve" y="544.1543" clip-path="url(#clipPath2)" stroke="none">14</text>
      <circle fill="none" r="15" clip-path="url(#clipPath2)" cx="570" cy="540"/>
    </g>
    <g fill="url(#linearGradient21)" text-rendering="geometricPrecision" shape-rendering="geometricPrecision" transform="matrix(1,0,0,1,-90,-60)" stroke="url(#linearGradient21)">
      <circle r="15" clip-path="url(#clipPath2)" cx="570" cy="390" stroke="none"/>
    </g>
    <g text-rendering="geometricPrecision" stroke-miterlimit="1.45" shape-rendering="geometricPrecision" font-family="sans-serif" transform="matrix(1,0,0,1,-90,-60)" stroke-linecap="butt">
      <text x="562.3652" xml:space="preserve" y="394.1543" clip-path="url(#clipPath2)" stroke="none">10</text>
      <circle fill="none" r="15" clip-path="url(#clipPath2)" cx="570" cy="390"/>
    </g>
    <g fill="url(#linearGradient22)" text-rendering="geometricPrecision" shape-rendering="geometricPrecision" transform="matrix(1,0,0,1,-90,-60)" stroke="url(#linearGradient22)">
      <circle r="15" clip-path="url(#clipPath2)" cx="570" cy="270" stroke="none"/>
    </g>
    <g text-rendering="geometricPrecision" stroke-miterlimit="1.45" shape-rendering="geometricPrecision" font-family="sans-serif" transform="matrix(1,0,0,1,-90,-60)" stroke-linecap="butt">
      <text x="562.3652" xml:space="preserve" y="274.1543" clip-path="url(#clipPath2)" stroke="none">12</text>
      <circle fill="none" r="15" clip-path="url(#clipPath2)" cx="570" cy="270"/>
    </g>
    <g fill="url(#linearGradient23)" text-rendering="geometricPrecision" shape-rendering="geometricPrecision" transform="matrix(1,0,0,1,-90,-60)" stroke="url(#linearGradient23)">
      <circle r="15" clip-path="url(#clipPath2)" cx="180" cy="150" stroke="none"/>
    </g>
    <g text-rendering="geometricPrecision" stroke-miterlimit="1.45" shape-rendering="geometricPrecision" font-family="sans-serif" transform="matrix(1,0,0,1,-90,-60)" stroke-linecap="butt">
      <text x="172.3652" xml:space="preserve" y="154.1543" clip-path="url(#clipPath2)" stroke="none">14</text>
      <circle fill="none" r="15" clip-path="url(#clipPath2)" cx="180" cy="150"/>
      <path fill="none" d="M120 105 L120 165" stroke-width="3" clip-path="url(#clipPath2)"/>
      <path fill="none" d="M225 90 L135 90" stroke-width="3" clip-path="url(#clipPath2)"/>
      <path fill="none" d="M240 165 L240 105" stroke-width="3" clip-path="url(#clipPath2)"/>
      <path fill="none" d="M435 90 L375 90" stroke-width="3" clip-path="url(#clipPath2)"/>
      <path fill="none" d="M248.3205 257.5193 L351.6795 102.4808" stroke-width="3" clip-path="url(#clipPath2)"/>
      <path fill="none" d="M252 171 L348 99" stroke-width="3" clip-path="url(#clipPath2)"/>
      <path fill="none" d="M255 90 L345 90" stroke-width="3" clip-path="url(#clipPath2)"/>
      <path fill="none" d="M446.362 104.5521 L423.638 195.4479" stroke-width="3" clip-path="url(#clipPath2)"/>
      <path fill="none" d="M465 90 L555 90" stroke-width="3" clip-path="url(#clipPath2)"/>
      <path fill="none" d="M460.6066 100.6066 L559.3934 199.3934" stroke-width="3" clip-path="url(#clipPath2)"/>
      <path fill="none" d="M435 210 L555 210" stroke-width="3" clip-path="url(#clipPath2)"/>
      <path fill="none" d="M570 195 L570 105" stroke-width="3" clip-path="url(#clipPath2)"/>
      <path fill="none" d="M193.4164 426.7082 L286.5836 473.2918" stroke-width="3" clip-path="url(#clipPath2)"/>
      <path fill="none" d="M244.1208 284.4229 L295.8792 465.5771" stroke-width="3" clip-path="url(#clipPath2)"/>
      <path fill="none" d="M173.2918 433.4164 L126.7082 526.5836" stroke-width="3" clip-path="url(#clipPath2)"/>
      <path fill="none" d="M120 195 L120 525" stroke-width="3" clip-path="url(#clipPath2)"/>
      <path fill="none" d="M285.7697 484.7434 L134.2303 535.2566" stroke-width="3" clip-path="url(#clipPath2)"/>
      <path fill="none" d="M180 405 L180 315" stroke-width="3" clip-path="url(#clipPath2)"/>
      <path fill="none" d="M126.7082 193.4164 L173.2918 286.5836" stroke-width="3" clip-path="url(#clipPath2)"/>
      <path fill="none" d="M226.5836 276.7082 L193.4164 293.2918" stroke-width="3" clip-path="url(#clipPath2)"/>
      <path fill="none" d="M346.5836 293.2918 L313.4164 276.7082" stroke-width="3" clip-path="url(#clipPath2)"/>
      <path fill="none" d="M255 270 L285 270" stroke-width="3" clip-path="url(#clipPath2)"/>
      <path fill="none" d="M300 465 L300 285" stroke-width="3" clip-path="url(#clipPath2)"/>
      <path fill="none" d="M313.4164 263.2918 L406.5836 216.7082" stroke-width="3" clip-path="url(#clipPath2)"/>
      <path fill="none" d="M375 300 L405 300" stroke-width="3" clip-path="url(#clipPath2)"/>
      <path fill="none" d="M420 285 L420 225" stroke-width="3" clip-path="url(#clipPath2)"/>
      <path fill="none" d="M411.6795 312.4807 L308.3205 467.5193" stroke-width="3" clip-path="url(#clipPath2)"/>
      <path fill="none" d="M507.0583 344.7087 L482.9417 465.2913" stroke-width="3" clip-path="url(#clipPath2)"/>
      <path fill="none" d="M424.7434 314.2303 L475.2566 465.7697" stroke-width="3" clip-path="url(#clipPath2)"/>
      <path fill="none" d="M315 480 L465 480" stroke-width="3" clip-path="url(#clipPath2)"/>
      <path fill="none" d="M514.1208 344.4229 L565.8792 525.5771" stroke-width="3" clip-path="url(#clipPath2)"/>
      <path fill="none" d="M135 540 L555 540" stroke-width="3" clip-path="url(#clipPath2)"/>
      <path fill="none" d="M557.5192 531.6795 L492.4807 488.3205" stroke-width="3" clip-path="url(#clipPath2)"/>
      <path fill="none" d="M520.6066 340.6066 L559.3934 379.3934" stroke-width="3" clip-path="url(#clipPath2)"/>
      <path fill="none" d="M570 405 L570 525" stroke-width="3" clip-path="url(#clipPath2)"/>
      <path fill="none" d="M520.6066 319.3934 L559.3934 280.6066" stroke-width="3" clip-path="url(#clipPath2)"/>
      <path fill="none" d="M570 225 L570 255" stroke-width="3" clip-path="url(#clipPath2)"/>
      <path fill="none" d="M570 375 L570 285" stroke-width="3" clip-path="url(#clipPath2)"/>
      <path fill="none" d="M434.7087 297.0583 L555.2913 272.9417" stroke-width="3" clip-path="url(#clipPath2)"/>
      <path fill="none" d="M166.5836 156.7082 L133.4164 173.2918" stroke-width="3" clip-path="url(#clipPath2)"/>
      <path fill="none" d="M169.3934 139.3934 L130.6066 100.6066" stroke-width="3" clip-path="url(#clipPath2)"/>
      <path fill="none" d="M190.6066 139.3934 L229.3934 100.6066" stroke-width="3" clip-path="url(#clipPath2)"/>
      <path fill="none" d="M193.4164 156.7082 L226.5836 173.2918" stroke-width="3" clip-path="url(#clipPath2)"/>
      <path fill="none" d="M186.7082 163.4164 L233.2918 256.5836" stroke-width="3" clip-path="url(#clipPath2)"/>
    </g>
  </g>
</svg>
