<?xml version="1.0" encoding="UTF-8"?>
<svg width="594px" height="100px" xmlns="http://www.w3.org/2000/svg">
    <rect width="594" height="100" fill="white"/>
    <rect x="30" width="6" height="100"/>
    <rect x="39" width="3" height="100"/>
    <rect x="48" width="3" height="100"/>
    <rect x="63" width="6" height="100"/>
    <rect x="72" width="9" height="100"/>
    <rect x="90" width="3" height="100"/>
    <rect x="96" width="3" height="100"/>
    <rect x="108" width="12" height="100"/>
    <rect x="123" width="3" height="100"/>
    <rect x="129" width="3" height="100"/>
    <rect x="144" width="3" height="100"/>
    <rect x="153" width="6" height="100"/>
    <rect x="162" width="3" height="100"/>
    <rect x="171" width="3" height="100"/>
    <rect x="177" width="6" height="100"/>
    <rect x="195" width="6" height="100"/>
    <rect x="204" width="6" height="100"/>
    <rect x="213" width="12" height="100"/>
    <rect x="228" width="6" height="100"/>
    <rect x="237" width="6" height="100"/>
    <rect x="249" width="6" height="100"/>
    <rect x="261" width="3" height="100"/>
    <rect x="276" width="6" height="100"/>
    <rect x="285" width="3" height="100"/>
    <rect x="294" width="3" height="100"/>
    <rect x="300" width="12" height="100"/>
    <rect x="318" width="3" height="100"/>
    <rect x="327" width="6" height="100"/>
    <rect x="336" width="6" height="100"/>
    <rect x="348" width="6" height="100"/>
    <rect x="360" width="3" height="100"/>
    <rect x="369" width="9" height="100"/>
    <rect x="381" width="6" height="100"/>
    <rect x="393" width="12" height="100"/>
    <rect x="411" width="3" height="100"/>
    <rect x="420" width="3" height="100"/>
    <rect x="426" width="6" height="100"/>
    <rect x="438" width="9" height="100"/>
    <rect x="453" width="3" height="100"/>
    <rect x="459" width="6" height="100"/>
    <rect x="471" width="9" height="100"/>
    <rect x="486" width="3" height="100"/>
    <rect x="492" width="12" height="100"/>
    <rect x="513" width="3" height="100"/>
    <rect x="519" width="3" height="100"/>
    <rect x="525" width="6" height="100"/>
    <rect x="540" width="9" height="100"/>
    <rect x="552" width="3" height="100"/>
    <rect x="558" width="6" height="100"/>
</svg>