<?xml version="1.0" standalone="no"?>
<!DOCTYPE svg PUBLIC "-//W3C//DTD SVG 1.1//EN"
   "http://www.w3.org/Graphics/SVG/1.1/DTD/svg11.dtd">
<svg width="468" height="177" version="1.1"
   xmlns="http://www.w3.org/2000/svg">
   <desc>qap upg yli
   </desc>

   <g id="barcode" fill="#000000">
      <rect x="0" y="0" width="468" height="177" fill="#FFFFFF" />
      <rect x="0.00" y="0.00" width="6.00" height="150.00" />
      <rect x="9.00" y="0.00" width="3.00" height="150.00" />
      <rect x="18.00" y="0.00" width="3.00" height="150.00" />
      <rect x="33.00" y="0.00" width="3.00" height="150.00" />
      <rect x="42.00" y="0.00" width="3.00" height="150.00" />
      <rect x="48.00" y="0.00" width="12.00" height="150.00" />
      <rect x="66.00" y="0.00" width="3.00" height="150.00" />
      <rect x="75.00" y="0.00" width="3.00" height="150.00" />
      <rect x="81.00" y="0.00" width="6.00" height="150.00" />
      <rect x="99.00" y="0.00" width="3.00" height="150.00" />
      <rect x="105.00" y="0.00" width="3.00" height="150.00" />
      <rect x="114.00" y="0.00" width="12.00" height="150.00" />
      <rect x="132.00" y="0.00" width="6.00" height="150.00" />
      <rect x="141.00" y="0.00" width="6.00" height="150.00" />
      <rect x="153.00" y="0.00" width="6.00" height="150.00" />
      <rect x="165.00" y="0.00" width="3.00" height="150.00" />
      <rect x="174.00" y="0.00" width="12.00" height="150.00" />
      <rect x="192.00" y="0.00" width="3.00" height="150.00" />
      <rect x="198.00" y="0.00" width="3.00" height="150.00" />
      <rect x="204.00" y="0.00" width="3.00" height="150.00" />
      <rect x="213.00" y="0.00" width="12.00" height="150.00" />
      <rect x="231.00" y="0.00" width="3.00" height="150.00" />
      <rect x="240.00" y="0.00" width="6.00" height="150.00" />
      <rect x="249.00" y="0.00" width="3.00" height="150.00" />
      <rect x="264.00" y="0.00" width="6.00" height="150.00" />
      <rect x="273.00" y="0.00" width="6.00" height="150.00" />
      <rect x="285.00" y="0.00" width="6.00" height="150.00" />
      <rect x="297.00" y="0.00" width="6.00" height="150.00" />
      <rect x="306.00" y="0.00" width="6.00" height="150.00" />
      <rect x="315.00" y="0.00" width="12.00" height="150.00" />
      <rect x="330.00" y="0.00" width="6.00" height="150.00" />
      <rect x="342.00" y="0.00" width="3.00" height="150.00" />
      <rect x="348.00" y="0.00" width="3.00" height="150.00" />
      <rect x="363.00" y="0.00" width="3.00" height="150.00" />
      <rect x="378.00" y="0.00" width="6.00" height="150.00" />
      <rect x="387.00" y="0.00" width="3.00" height="150.00" />
      <rect x="396.00" y="0.00" width="12.00" height="150.00" />
      <rect x="411.00" y="0.00" width="3.00" height="150.00" />
      <rect x="423.00" y="0.00" width="3.00" height="150.00" />
      <rect x="429.00" y="0.00" width="6.00" height="150.00" />
      <rect x="444.00" y="0.00" width="9.00" height="150.00" />
      <rect x="456.00" y="0.00" width="3.00" height="150.00" />
      <rect x="462.00" y="0.00" width="6.00" height="150.00" />
      <text x="234.00" y="177.00" text-anchor="middle"
         font-family="Helvetica" font-size="24.0" fill="#000000" >
         qap upg yli
      </text>
   </g>
</svg>
