<?xml version="1.0" standalone="no"?>
<!DOCTYPE svg PUBLIC "-//W3C//DTD SVG 1.1//EN"
   "http://www.w3.org/Graphics/SVG/1.1/DTD/svg11.dtd">
<svg width="620" height="100" version="1.1"
   xmlns="http://www.w3.org/2000/svg">
   <g id="barcode" fill="#000000">
      <rect x="0" y="0" width="620" height="100" fill="#FFFFFF" />
      <rect x="0.00" y="0.00" width="4.00" height="100.00" />
      <rect x="6.00" y="0.00" width="2.00" height="100.00" />
      <rect x="12.00" y="0.00" width="2.00" height="100.00" />
      <rect x="22.00" y="0.00" width="2.00" height="100.00" />
      <rect x="28.00" y="0.00" width="6.00" height="100.00" />
      <rect x="38.00" y="0.00" width="4.00" height="100.00" />
      <rect x="44.00" y="0.00" width="2.00" height="100.00" />
      <rect x="50.00" y="0.00" width="6.00" height="100.00" />
      <rect x="58.00" y="0.00" width="4.00" height="100.00" />
      <rect x="66.00" y="0.00" width="4.00" height="100.00" />
      <rect x="74.00" y="0.00" width="2.00" height="100.00" />
      <rect x="78.00" y="0.00" width="6.00" height="100.00" />
      <rect x="88.00" y="0.00" width="4.00" height="100.00" />
      <rect x="94.00" y="0.00" width="4.00" height="100.00" />
      <rect x="102.00" y="0.00" width="4.00" height="100.00" />
      <rect x="110.00" y="0.00" width="2.00" height="100.00" />
      <rect x="116.00" y="0.00" width="6.00" height="100.00" />
      <rect x="126.00" y="0.00" width="4.00" height="100.00" />
      <rect x="132.00" y="0.00" width="2.00" height="100.00" />
      <rect x="138.00" y="0.00" width="6.00" height="100.00" />
      <rect x="148.00" y="0.00" width="4.00" height="100.00" />
      <rect x="154.00" y="0.00" width="2.00" height="100.00" />
      <rect x="160.00" y="0.00" width="6.00" height="100.00" />
      <rect x="170.00" y="0.00" width="4.00" height="100.00" />
      <rect x="176.00" y="0.00" width="4.00" height="100.00" />
      <rect x="182.00" y="0.00" width="4.00" height="100.00" />
      <rect x="190.00" y="0.00" width="4.00" height="100.00" />
      <rect x="198.00" y="0.00" width="2.00" height="100.00" />
      <rect x="204.00" y="0.00" width="6.00" height="100.00" />
      <rect x="214.00" y="0.00" width="4.00" height="100.00" />
      <rect x="220.00" y="0.00" width="2.00" height="100.00" />
      <rect x="226.00" y="0.00" width="6.00" height="100.00" />
      <rect x="236.00" y="0.00" width="4.00" height="100.00" />
      <rect x="242.00" y="0.00" width="2.00" height="100.00" />
      <rect x="248.00" y="0.00" width="6.00" height="100.00" />
      <rect x="258.00" y="0.00" width="4.00" height="100.00" />
      <rect x="264.00" y="0.00" width="4.00" height="100.00" />
      <rect x="270.00" y="0.00" width="4.00" height="100.00" />
      <rect x="278.00" y="0.00" width="4.00" height="100.00" />
      <rect x="286.00" y="0.00" width="4.00" height="100.00" />
      <rect x="294.00" y="0.00" width="2.00" height="100.00" />
      <rect x="300.00" y="0.00" width="6.00" height="100.00" />
      <rect x="308.00" y="0.00" width="4.00" height="100.00" />
      <rect x="316.00" y="0.00" width="6.00" height="100.00" />
      <rect x="324.00" y="0.00" width="2.00" height="100.00" />
      <rect x="330.00" y="0.00" width="4.00" height="100.00" />
      <rect x="336.00" y="0.00" width="4.00" height="100.00" />
      <rect x="344.00" y="0.00" width="4.00" height="100.00" />
      <rect x="352.00" y="0.00" width="2.00" height="100.00" />
      <rect x="358.00" y="0.00" width="6.00" height="100.00" />
      <rect x="368.00" y="0.00" width="4.00" height="100.00" />
      <rect x="374.00" y="0.00" width="2.00" height="100.00" />
      <rect x="380.00" y="0.00" width="6.00" height="100.00" />
      <rect x="388.00" y="0.00" width="4.00" height="100.00" />
      <rect x="396.00" y="0.00" width="4.00" height="100.00" />
      <rect x="404.00" y="0.00" width="2.00" height="100.00" />
      <rect x="408.00" y="0.00" width="6.00" height="100.00" />
      <rect x="418.00" y="0.00" width="4.00" height="100.00" />
      <rect x="424.00" y="0.00" width="4.00" height="100.00" />
      <rect x="432.00" y="0.00" width="4.00" height="100.00" />
      <rect x="440.00" y="0.00" width="2.00" height="100.00" />
      <rect x="446.00" y="0.00" width="6.00" height="100.00" />
      <rect x="456.00" y="0.00" width="4.00" height="100.00" />
      <rect x="462.00" y="0.00" width="2.00" height="100.00" />
      <rect x="468.00" y="0.00" width="6.00" height="100.00" />
      <rect x="476.00" y="0.00" width="4.00" height="100.00" />
      <rect x="484.00" y="0.00" width="6.00" height="100.00" />
      <rect x="492.00" y="0.00" width="2.00" height="100.00" />
      <rect x="498.00" y="0.00" width="4.00" height="100.00" />
      <rect x="506.00" y="0.00" width="4.00" height="100.00" />
      <rect x="512.00" y="0.00" width="4.00" height="100.00" />
      <rect x="520.00" y="0.00" width="4.00" height="100.00" />
      <rect x="528.00" y="0.00" width="4.00" height="100.00" />
      <rect x="536.00" y="0.00" width="2.00" height="100.00" />
      <rect x="542.00" y="0.00" width="6.00" height="100.00" />
      <rect x="550.00" y="0.00" width="6.00" height="100.00" />
      <rect x="558.00" y="0.00" width="4.00" height="100.00" />
      <rect x="564.00" y="0.00" width="6.00" height="100.00" />
      <rect x="572.00" y="0.00" width="4.00" height="100.00" />
      <rect x="580.00" y="0.00" width="4.00" height="100.00" />
      <rect x="586.00" y="0.00" width="4.00" height="100.00" />
      <rect x="594.00" y="0.00" width="4.00" height="100.00" />
      <rect x="604.00" y="0.00" width="6.00" height="100.00" />
      <rect x="612.00" y="0.00" width="2.00" height="100.00" />
      <rect x="616.00" y="0.00" width="4.00" height="100.00" />
   </g>
</svg>
