<?xml version="1.0" standalone="no"?>
<!DOCTYPE svg PUBLIC "-//W3C//DTD SVG 1.1//EN"
   "http://www.w3.org/Graphics/SVG/1.1/DTD/svg11.dtd">
<svg width="435" height="177" version="1.1"
   xmlns="http://www.w3.org/2000/svg">
   <desc>KEY=WOODEN
   </desc>

   <g id="barcode" fill="#000000">
      <rect x="0" y="0" width="435" height="177" fill="#FFFFFF" />
      <rect x="0.00" y="0.00" width="6.00" height="150.00" />
      <rect x="9.00" y="0.00" width="3.00" height="150.00" />
      <rect x="18.00" y="0.00" width="3.00" height="150.00" />
      <rect x="33.00" y="0.00" width="3.00" height="150.00" />
      <rect x="39.00" y="0.00" width="6.00" height="150.00" />
      <rect x="54.00" y="0.00" width="9.00" height="150.00" />
      <rect x="66.00" y="0.00" width="3.00" height="150.00" />
      <rect x="78.00" y="0.00" width="6.00" height="150.00" />
      <rect x="87.00" y="0.00" width="3.00" height="150.00" />
      <rect x="99.00" y="0.00" width="9.00" height="150.00" />
      <rect x="111.00" y="0.00" width="6.00" height="150.00" />
      <rect x="120.00" y="0.00" width="3.00" height="150.00" />
      <rect x="132.00" y="0.00" width="9.00" height="150.00" />
      <rect x="147.00" y="0.00" width="6.00" height="150.00" />
      <rect x="159.00" y="0.00" width="3.00" height="150.00" />
      <rect x="165.00" y="0.00" width="9.00" height="150.00" />
      <rect x="177.00" y="0.00" width="3.00" height="150.00" />
      <rect x="189.00" y="0.00" width="6.00" height="150.00" />
      <rect x="198.00" y="0.00" width="3.00" height="150.00" />
      <rect x="210.00" y="0.00" width="9.00" height="150.00" />
      <rect x="222.00" y="0.00" width="6.00" height="150.00" />
      <rect x="231.00" y="0.00" width="3.00" height="150.00" />
      <rect x="243.00" y="0.00" width="9.00" height="150.00" />
      <rect x="255.00" y="0.00" width="6.00" height="150.00" />
      <rect x="264.00" y="0.00" width="3.00" height="150.00" />
      <rect x="270.00" y="0.00" width="6.00" height="150.00" />
      <rect x="285.00" y="0.00" width="3.00" height="150.00" />
      <rect x="297.00" y="0.00" width="3.00" height="150.00" />
      <rect x="309.00" y="0.00" width="6.00" height="150.00" />
      <rect x="318.00" y="0.00" width="3.00" height="150.00" />
      <rect x="330.00" y="0.00" width="3.00" height="150.00" />
      <rect x="336.00" y="0.00" width="9.00" height="150.00" />
      <rect x="354.00" y="0.00" width="6.00" height="150.00" />
      <rect x="363.00" y="0.00" width="3.00" height="150.00" />
      <rect x="372.00" y="0.00" width="3.00" height="150.00" />
      <rect x="381.00" y="0.00" width="6.00" height="150.00" />
      <rect x="396.00" y="0.00" width="6.00" height="150.00" />
      <rect x="411.00" y="0.00" width="9.00" height="150.00" />
      <rect x="423.00" y="0.00" width="3.00" height="150.00" />
      <rect x="429.00" y="0.00" width="6.00" height="150.00" />
   </g>
</svg>
