<?xml version="1.0" encoding="UTF-8" standalone="no"?>
<svg
   xmlns:dc="http://purl.org/dc/elements/1.1/"
   xmlns:cc="http://creativecommons.org/ns#"
   xmlns:rdf="http://www.w3.org/1999/02/22-rdf-syntax-ns#"
   xmlns:svg="http://www.w3.org/2000/svg"
   xmlns="http://www.w3.org/2000/svg"
   xmlns:sodipodi="http://sodipodi.sourceforge.net/DTD/sodipodi-0.dtd"
   xmlns:inkscape="http://www.inkscape.org/namespaces/inkscape"
   width="468"
   height="149"
   version="1.1"
   id="svg3154"
   inkscape:version="0.48.4 r9939"
   sodipodi:docname="barcode (1).svg">
  <metadata
     id="metadata3253">
    <rdf:RDF>
      <cc:Work
         rdf:about="">
        <dc:format>image/svg+xml</dc:format>
        <dc:type
           rdf:resource="http://purl.org/dc/dcmitype/StillImage" />
      </cc:Work>
    </rdf:RDF>
  </metadata>
  <defs
     id="defs3251" />
  <sodipodi:namedview
     pagecolor="#ffffff"
     bordercolor="#666666"
     borderopacity="1"
     objecttolerance="10"
     gridtolerance="10"
     guidetolerance="10"
     inkscape:pageopacity="0"
     inkscape:pageshadow="2"
     inkscape:window-width="1187"
     inkscape:window-height="877"
     id="namedview3249"
     showgrid="false"
     fit-margin-top="0"
     fit-margin-left="0"
     fit-margin-right="0"
     fit-margin-bottom="0"
     inkscape:zoom="1"
     inkscape:cx="234"
     inkscape:cy="60.5"
     inkscape:window-x="0"
     inkscape:window-y="0"
     inkscape:window-maximized="0"
     inkscape:current-layer="barcode" />
  <desc
     id="desc3156">the key for
   </desc>
  <g
     id="barcode"
     style="fill:#000000">
    <rect
       x="0"
       y="0"
       width="468"
       height="149"
       id="rect3159"
       style="fill:#ffffff" />
    <rect
       x="0"
       y="0"
       width="6"
       height="150"
       id="rect3161" />
    <rect
       x="9"
       y="0"
       width="3"
       height="150"
       id="rect3163" />
    <rect
       x="18"
       y="0"
       width="3"
       height="150"
       id="rect3165" />
    <rect
       x="33"
       y="0"
       width="3"
       height="150"
       id="rect3167" />
    <rect
       x="42"
       y="0"
       width="12"
       height="150"
       id="rect3169" />
    <rect
       x="57"
       y="0"
       width="3"
       height="150"
       id="rect3171" />
    <rect
       x="66"
       y="0"
       width="3"
       height="150"
       id="rect3173" />
    <rect
       x="75"
       y="0"
       width="6"
       height="150"
       id="rect3175" />
    <rect
       x="93"
       y="0"
       width="3"
       height="150"
       id="rect3177" />
    <rect
       x="99"
       y="0"
       width="3"
       height="150"
       id="rect3179" />
    <rect
       x="105"
       y="0"
       width="6"
       height="150"
       id="rect3181" />
    <rect
       x="117"
       y="0"
       width="3"
       height="150"
       id="rect3183" />
    <rect
       x="132"
       y="0"
       width="6"
       height="150"
       id="rect3185" />
    <rect
       x="141"
       y="0"
       width="6"
       height="150"
       id="rect3187" />
    <rect
       x="153"
       y="0"
       width="6"
       height="150"
       id="rect3189" />
    <rect
       x="165"
       y="0"
       width="6"
       height="150"
       id="rect3191" />
    <rect
       x="183"
       y="0"
       width="3"
       height="150"
       id="rect3193" />
    <rect
       x="192"
       y="0"
       width="3"
       height="150"
       id="rect3195" />
    <rect
       x="198"
       y="0"
       width="3"
       height="150"
       id="rect3197" />
    <rect
       x="204"
       y="0"
       width="6"
       height="150"
       id="rect3199" />
    <rect
       x="216"
       y="0"
       width="3"
       height="150"
       id="rect3201" />
    <rect
       x="231"
       y="0"
       width="6"
       height="150"
       id="rect3203" />
    <rect
       x="240"
       y="0"
       width="6"
       height="150"
       id="rect3205" />
    <rect
       x="249"
       y="0"
       width="12"
       height="150"
       id="rect3207" />
    <rect
       x="264"
       y="0"
       width="6"
       height="150"
       id="rect3209" />
    <rect
       x="273"
       y="0"
       width="6"
       height="150"
       id="rect3211" />
    <rect
       x="285"
       y="0"
       width="6"
       height="150"
       id="rect3213" />
    <rect
       x="297"
       y="0"
       width="3"
       height="150"
       id="rect3215" />
    <rect
       x="303"
       y="0"
       width="6"
       height="150"
       id="rect3217" />
    <rect
       x="321"
       y="0"
       width="3"
       height="150"
       id="rect3219" />
    <rect
       x="330"
       y="0"
       width="3"
       height="150"
       id="rect3221" />
    <rect
       x="342"
       y="0"
       width="12"
       height="150"
       id="rect3223" />
    <rect
       x="357"
       y="0"
       width="3"
       height="150"
       id="rect3225" />
    <rect
       x="363"
       y="0"
       width="3"
       height="150"
       id="rect3227" />
    <rect
       x="372"
       y="0"
       width="3"
       height="150"
       id="rect3229" />
    <rect
       x="381"
       y="0"
       width="12"
       height="150"
       id="rect3231" />
    <rect
       x="396"
       y="0"
       width="6"
       height="150"
       id="rect3233" />
    <rect
       x="411"
       y="0"
       width="3"
       height="150"
       id="rect3235" />
    <rect
       x="417"
       y="0"
       width="9"
       height="150"
       id="rect3237" />
    <rect
       x="429"
       y="0"
       width="6"
       height="150"
       id="rect3239" />
    <rect
       x="444"
       y="0"
       width="9"
       height="150"
       id="rect3241" />
    <rect
       x="456"
       y="0"
       width="3"
       height="150"
       id="rect3243" />
    <rect
       x="462"
       y="0"
       width="6"
       height="150"
       id="rect3245" />
  </g>
</svg>
