<?xml version="1.0" encoding="UTF-8"?>
<svg xmlns="http://www.w3.org/2000/svg" xmlns:xlink="http://www.w3.org/1999/xlink" fill-opacity="1" color-rendering="auto" color-interpolation="auto" stroke="black" text-rendering="auto" stroke-linecap="square" width="1021" stroke-miterlimit="10" stroke-opacity="1" shape-rendering="auto" fill="black" stroke-dasharray="none" font-weight="normal" stroke-width="1" height="960" font-family="'Dialog'" font-style="normal" stroke-linejoin="miter" font-size="12" stroke-dashoffset="0" image-rendering="auto">
  <!--Generated by ySVG-->
  <defs id="genericDefs"/>
  <g>
    <defs id="defs1">
      <clipPath clipPathUnits="userSpaceOnUse" id="clipPath1">
        <path d="M0 0 L1021 0 L1021 960 L0 960 L0 0 Z"/>
      </clipPath>
      <clipPath clipPathUnits="userSpaceOnUse" id="clipPath2">
        <path d="M29 30 L1050 30 L1050 990 L29 990 L29 30 Z"/>
      </clipPath>
    </defs>
    <g fill="white" transform="translate(-29,-30)" stroke="white">
      <rect x="29" width="1021" height="960" y="30" clip-path="url(#clipPath2)" stroke="none"/>
    </g>
    <g stroke-width="4" stroke-miterlimit="1.45" transform="matrix(1,0,0,1,-29,-30)" stroke-linecap="butt">
      <circle fill="none" r="15" clip-path="url(#clipPath2)" cx="180" cy="60"/>
      <circle fill="none" r="15" clip-path="url(#clipPath2)" cx="600" cy="120"/>
      <circle fill="none" r="15" clip-path="url(#clipPath2)" cx="600" cy="420"/>
      <circle fill="none" r="15" clip-path="url(#clipPath2)" cx="360" cy="480"/>
      <circle fill="none" r="15" clip-path="url(#clipPath2)" cx="180" cy="360"/>
      <circle fill="none" r="15" clip-path="url(#clipPath2)" cx="1020" cy="300"/>
      <circle fill="none" r="15" clip-path="url(#clipPath2)" cx="900" cy="480"/>
      <circle fill="none" r="15" clip-path="url(#clipPath2)" cx="1020" cy="60"/>
      <circle fill="none" r="15" clip-path="url(#clipPath2)" cx="420" cy="300"/>
      <circle fill="none" r="15" clip-path="url(#clipPath2)" cx="360" cy="120"/>
      <circle fill="none" r="15" clip-path="url(#clipPath2)" cx="780" cy="300"/>
      <circle fill="none" r="15" clip-path="url(#clipPath2)" cx="720" cy="540"/>
      <circle fill="none" r="15" clip-path="url(#clipPath2)" cx="720" cy="720"/>
      <circle fill="none" r="15" clip-path="url(#clipPath2)" cx="480" cy="780"/>
      <circle fill="none" r="15" clip-path="url(#clipPath2)" cx="420" cy="600"/>
      <circle fill="none" r="15" clip-path="url(#clipPath2)" cx="960" cy="840"/>
      <circle fill="none" r="15" clip-path="url(#clipPath2)" cx="600" cy="900"/>
      <circle fill="none" r="15" clip-path="url(#clipPath2)" cx="840" cy="960"/>
      <circle fill="none" r="15" clip-path="url(#clipPath2)" cx="360" cy="900"/>
      <circle fill="none" r="15" clip-path="url(#clipPath2)" cx="1020" cy="600"/>
      <circle fill="none" r="15" clip-path="url(#clipPath2)" cx="240" cy="720"/>
      <circle fill="none" r="15" clip-path="url(#clipPath2)" cx="180" cy="540"/>
      <circle fill="none" r="15" clip-path="url(#clipPath2)" cx="120" cy="840"/>
      <circle fill="none" r="15" clip-path="url(#clipPath2)" cx="240" cy="960"/>
      <circle fill="none" r="15" clip-path="url(#clipPath2)" cx="600" cy="660"/>
      <circle fill="none" r="15" clip-path="url(#clipPath2)" cx="180" cy="180"/>
      <circle fill="none" r="15" clip-path="url(#clipPath2)" cx="60" cy="60"/>
      <circle fill="none" r="15" clip-path="url(#clipPath2)" cx="240" cy="60"/>
      <circle fill="none" r="15" clip-path="url(#clipPath2)" cx="420" cy="120"/>
      <circle fill="none" r="15" clip-path="url(#clipPath2)" cx="420" cy="180"/>
      <circle fill="none" r="15" clip-path="url(#clipPath2)" cx="300" cy="180"/>
      <circle fill="none" r="15" clip-path="url(#clipPath2)" cx="660" cy="180"/>
      <circle fill="none" r="15" clip-path="url(#clipPath2)" cx="660" cy="60"/>
      <circle fill="none" r="15" clip-path="url(#clipPath2)" cx="540" cy="180"/>
      <circle fill="none" r="15" clip-path="url(#clipPath2)" cx="360" cy="360"/>
      <circle fill="none" r="15" clip-path="url(#clipPath2)" cx="480" cy="360"/>
      <circle fill="none" r="15" clip-path="url(#clipPath2)" cx="480" cy="240"/>
      <circle fill="none" r="15" clip-path="url(#clipPath2)" cx="360" cy="240"/>
      <circle fill="none" r="15" clip-path="url(#clipPath2)" cx="240" cy="300"/>
      <circle fill="none" r="15" clip-path="url(#clipPath2)" cx="60" cy="300"/>
      <circle fill="none" r="15" clip-path="url(#clipPath2)" cx="60" cy="480"/>
      <circle fill="none" r="15" clip-path="url(#clipPath2)" cx="180" cy="420"/>
      <circle fill="none" r="15" clip-path="url(#clipPath2)" cx="240" cy="480"/>
      <circle fill="none" r="15" clip-path="url(#clipPath2)" cx="240" cy="540"/>
      <circle fill="none" r="15" clip-path="url(#clipPath2)" cx="180" cy="600"/>
      <circle fill="none" r="15" clip-path="url(#clipPath2)" cx="360" cy="420"/>
      <circle fill="none" r="15" clip-path="url(#clipPath2)" cx="480" cy="480"/>
      <circle fill="none" r="15" clip-path="url(#clipPath2)" cx="360" cy="540"/>
      <circle fill="none" r="15" clip-path="url(#clipPath2)" cx="540" cy="360"/>
      <circle fill="none" r="15" clip-path="url(#clipPath2)" cx="600" cy="300"/>
      <circle fill="none" r="15" clip-path="url(#clipPath2)" cx="660" cy="300"/>
      <circle fill="none" r="15" clip-path="url(#clipPath2)" cx="720" cy="420"/>
      <circle fill="none" r="15" clip-path="url(#clipPath2)" cx="660" cy="480"/>
      <circle fill="none" r="15" clip-path="url(#clipPath2)" cx="540" cy="480"/>
      <circle fill="none" r="15" clip-path="url(#clipPath2)" cx="720" cy="240"/>
      <circle fill="none" r="15" clip-path="url(#clipPath2)" cx="780" cy="360"/>
      <circle fill="none" r="15" clip-path="url(#clipPath2)" cx="780" cy="180"/>
      <circle fill="none" r="15" clip-path="url(#clipPath2)" cx="780" cy="480"/>
      <circle fill="none" r="15" clip-path="url(#clipPath2)" cx="780" cy="600"/>
      <circle fill="none" r="15" clip-path="url(#clipPath2)" cx="660" cy="600"/>
      <circle fill="none" r="15" clip-path="url(#clipPath2)" cx="480" cy="540"/>
      <circle fill="none" r="15" clip-path="url(#clipPath2)" cx="360" cy="600"/>
      <circle fill="none" r="15" clip-path="url(#clipPath2)" cx="540" cy="600"/>
      <circle fill="none" r="15" clip-path="url(#clipPath2)" cx="420" cy="660"/>
      <circle fill="none" r="15" clip-path="url(#clipPath2)" cx="300" cy="660"/>
      <circle fill="none" r="15" clip-path="url(#clipPath2)" cx="180" cy="660"/>
      <circle fill="none" r="15" clip-path="url(#clipPath2)" cx="300" cy="780"/>
      <circle fill="none" r="15" clip-path="url(#clipPath2)" cx="420" cy="720"/>
      <circle fill="none" r="15" clip-path="url(#clipPath2)" cx="540" cy="720"/>
      <circle fill="none" r="15" clip-path="url(#clipPath2)" cx="540" cy="780"/>
      <circle fill="none" r="15" clip-path="url(#clipPath2)" cx="600" cy="720"/>
      <circle fill="none" r="15" clip-path="url(#clipPath2)" cx="660" cy="660"/>
      <circle fill="none" r="15" clip-path="url(#clipPath2)" cx="600" cy="600"/>
      <circle fill="none" r="15" clip-path="url(#clipPath2)" cx="780" cy="660"/>
      <circle fill="none" r="15" clip-path="url(#clipPath2)" cx="780" cy="780"/>
      <circle fill="none" r="15" clip-path="url(#clipPath2)" cx="660" cy="780"/>
      <circle fill="none" r="15" clip-path="url(#clipPath2)" cx="180" cy="840"/>
      <circle fill="none" r="15" clip-path="url(#clipPath2)" cx="120" cy="780"/>
      <circle fill="none" r="15" clip-path="url(#clipPath2)" cx="60" cy="960"/>
      <circle fill="none" r="15" clip-path="url(#clipPath2)" cx="180" cy="900"/>
      <circle fill="none" r="15" clip-path="url(#clipPath2)" cx="180" cy="960"/>
      <circle fill="none" r="15" clip-path="url(#clipPath2)" cx="300" cy="900"/>
      <circle fill="none" r="15" clip-path="url(#clipPath2)" cx="300" cy="960"/>
      <circle fill="none" r="15" clip-path="url(#clipPath2)" cx="120" cy="900"/>
      <circle fill="none" r="15" clip-path="url(#clipPath2)" cx="240" cy="900"/>
      <circle fill="none" r="15" clip-path="url(#clipPath2)" cx="360" cy="840"/>
      <circle fill="none" r="15" clip-path="url(#clipPath2)" cx="420" cy="840"/>
      <circle fill="none" r="15" clip-path="url(#clipPath2)" cx="420" cy="900"/>
      <circle fill="none" r="15" clip-path="url(#clipPath2)" cx="360" cy="960"/>
      <circle fill="none" r="15" clip-path="url(#clipPath2)" cx="540" cy="900"/>
      <circle fill="none" r="15" clip-path="url(#clipPath2)" cx="660" cy="900"/>
      <circle fill="none" r="15" clip-path="url(#clipPath2)" cx="660" cy="960"/>
      <circle fill="none" r="15" clip-path="url(#clipPath2)" cx="780" cy="900"/>
      <circle fill="none" r="15" clip-path="url(#clipPath2)" cx="840" cy="840"/>
      <circle fill="none" r="15" clip-path="url(#clipPath2)" cx="900" cy="960"/>
      <circle fill="none" r="15" clip-path="url(#clipPath2)" cx="780" cy="960"/>
      <circle fill="none" r="15" clip-path="url(#clipPath2)" cx="1020" cy="960"/>
      <circle fill="none" r="15" clip-path="url(#clipPath2)" cx="960" cy="780"/>
      <circle fill="none" r="15" clip-path="url(#clipPath2)" cx="900" cy="840"/>
      <circle fill="none" r="15" clip-path="url(#clipPath2)" cx="900" cy="540"/>
      <circle fill="none" r="15" clip-path="url(#clipPath2)" cx="960" cy="480"/>
      <circle fill="none" r="15" clip-path="url(#clipPath2)" cx="1020" cy="360"/>
      <circle fill="none" r="15" clip-path="url(#clipPath2)" cx="900" cy="240"/>
      <circle fill="none" r="15" clip-path="url(#clipPath2)" cx="1020" cy="240"/>
      <circle fill="none" r="15" clip-path="url(#clipPath2)" cx="840" cy="360"/>
      <circle fill="none" r="15" clip-path="url(#clipPath2)" cx="900" cy="300"/>
      <circle fill="none" r="15" clip-path="url(#clipPath2)" cx="840" cy="60"/>
      <circle fill="none" r="15" clip-path="url(#clipPath2)" cx="1020" cy="180"/>
      <circle fill="none" r="15" clip-path="url(#clipPath2)" cx="960" cy="600"/>
      <circle fill="none" r="15" clip-path="url(#clipPath2)" cx="1020" cy="720"/>
      <circle fill="none" r="15" clip-path="url(#clipPath2)" cx="1020" cy="480"/>
      <path fill="none" stroke-width="5" d="M180 75 L180 165" clip-path="url(#clipPath2)"/>
      <path fill="none" stroke-width="5" d="M165 60 L75 60" clip-path="url(#clipPath2)"/>
      <path fill="none" stroke-width="5" d="M195 60 L225 60" clip-path="url(#clipPath2)"/>
      <path fill="none" stroke-width="5" d="M375 120 L405 120" clip-path="url(#clipPath2)"/>
      <path fill="none" stroke-width="5" d="M370.6066 130.6066 L409.3934 169.3934" clip-path="url(#clipPath2)"/>
      <path fill="none" stroke-width="5" d="M420 135 L420 165" clip-path="url(#clipPath2)"/>
      <path fill="none" stroke-width="5" d="M349.3934 130.6066 L310.6066 169.3934" clip-path="url(#clipPath2)"/>
      <path fill="none" stroke-width="5" d="M246.7082 73.4164 L293.2918 166.5836" clip-path="url(#clipPath2)"/>
      <path fill="none" stroke-width="5" d="M405 180 L315 180" clip-path="url(#clipPath2)"/>
      <path fill="none" stroke-width="5" d="M285 180 L195 180" clip-path="url(#clipPath2)"/>
      <path fill="none" stroke-width="5" d="M610.6066 130.6066 L649.3934 169.3934" clip-path="url(#clipPath2)"/>
      <path fill="none" stroke-width="5" d="M610.6066 109.3934 L649.3934 70.6066" clip-path="url(#clipPath2)"/>
      <path fill="none" stroke-width="5" d="M255 60 L645 60" clip-path="url(#clipPath2)"/>
      <path fill="none" stroke-width="5" d="M645.4479 63.638 L434.5521 116.362" clip-path="url(#clipPath2)"/>
      <path fill="none" stroke-width="5" d="M660 75 L660 165" clip-path="url(#clipPath2)"/>
      <path fill="none" stroke-width="5" d="M589.3934 130.6066 L550.6066 169.3934" clip-path="url(#clipPath2)"/>
      <path fill="none" stroke-width="5" d="M526.5836 173.2918 L433.4164 126.7082" clip-path="url(#clipPath2)"/>
      <path fill="none" stroke-width="5" d="M409.3934 310.6066 L370.6066 349.3934" clip-path="url(#clipPath2)"/>
      <path fill="none" stroke-width="5" d="M430.6066 310.6066 L469.3934 349.3934" clip-path="url(#clipPath2)"/>
      <path fill="none" stroke-width="5" d="M465 360 L375 360" clip-path="url(#clipPath2)"/>
      <path fill="none" stroke-width="5" d="M430.6066 289.3934 L469.3934 250.6066" clip-path="url(#clipPath2)"/>
      <path fill="none" stroke-width="5" d="M430.6066 190.6066 L469.3934 229.3934" clip-path="url(#clipPath2)"/>
      <path fill="none" stroke-width="5" d="M490.6066 229.3934 L529.3934 190.6066" clip-path="url(#clipPath2)"/>
      <path fill="none" stroke-width="5" d="M409.3934 289.3934 L370.6066 250.6066" clip-path="url(#clipPath2)"/>
      <path fill="none" stroke-width="5" d="M370.6066 229.3934 L409.3934 190.6066" clip-path="url(#clipPath2)"/>
      <path fill="none" stroke-width="5" d="M360 255 L360 345" clip-path="url(#clipPath2)"/>
      <path fill="none" stroke-width="5" d="M190.6066 349.3934 L229.3934 310.6066" clip-path="url(#clipPath2)"/>
      <path fill="none" stroke-width="5" d="M186.7082 193.4164 L233.2918 286.5836" clip-path="url(#clipPath2)"/>
      <path fill="none" stroke-width="5" d="M293.2918 193.4164 L246.7082 286.5836" clip-path="url(#clipPath2)"/>
      <path fill="none" stroke-width="5" d="M253.4164 293.2918 L346.5836 246.7082" clip-path="url(#clipPath2)"/>
      <path fill="none" stroke-width="5" d="M166.5836 353.2918 L73.4164 306.7082" clip-path="url(#clipPath2)"/>
      <path fill="none" stroke-width="5" d="M169.3934 190.6066 L70.6066 289.3934" clip-path="url(#clipPath2)"/>
      <path fill="none" stroke-width="5" d="M60 75 L60 285" clip-path="url(#clipPath2)"/>
      <path fill="none" stroke-width="5" d="M166.5836 533.2918 L73.4164 486.7082" clip-path="url(#clipPath2)"/>
      <path fill="none" stroke-width="5" d="M60 465 L60 315" clip-path="url(#clipPath2)"/>
      <path fill="none" stroke-width="5" d="M180 525 L180 435" clip-path="url(#clipPath2)"/>
      <path fill="none" stroke-width="5" d="M349.3934 250.6066 L190.6066 409.3934" clip-path="url(#clipPath2)"/>
      <path fill="none" stroke-width="5" d="M70.6066 310.6066 L169.3934 409.3934" clip-path="url(#clipPath2)"/>
      <path fill="none" stroke-width="5" d="M166.5836 426.7082 L73.4164 473.2918" clip-path="url(#clipPath2)"/>
      <path fill="none" stroke-width="5" d="M190.6066 529.3934 L229.3934 490.6066" clip-path="url(#clipPath2)"/>
      <path fill="none" stroke-width="5" d="M349.3934 370.6066 L250.6066 469.3934" clip-path="url(#clipPath2)"/>
      <path fill="none" stroke-width="5" d="M190.6066 430.6066 L229.3934 469.3934" clip-path="url(#clipPath2)"/>
      <path fill="none" stroke-width="5" d="M195 540 L225 540" clip-path="url(#clipPath2)"/>
      <path fill="none" stroke-width="5" d="M240 495 L240 525" clip-path="url(#clipPath2)"/>
      <path fill="none" stroke-width="5" d="M180 555 L180 585" clip-path="url(#clipPath2)"/>
      <path fill="none" stroke-width="5" d="M70.6066 490.6066 L169.3934 589.3934" clip-path="url(#clipPath2)"/>
      <path fill="none" stroke-width="5" d="M360 465 L360 435" clip-path="url(#clipPath2)"/>
      <path fill="none" stroke-width="5" d="M360 375 L360 405" clip-path="url(#clipPath2)"/>
      <path fill="none" stroke-width="5" d="M253.4164 473.2918 L346.5836 426.7082" clip-path="url(#clipPath2)"/>
      <path fill="none" stroke-width="5" d="M466.5836 366.7082 L373.4164 413.2918" clip-path="url(#clipPath2)"/>
      <path fill="none" stroke-width="5" d="M375 480 L465 480" clip-path="url(#clipPath2)"/>
      <path fill="none" stroke-width="5" d="M373.4164 426.7082 L466.5836 473.2918" clip-path="url(#clipPath2)"/>
      <path fill="none" stroke-width="5" d="M480 465 L480 375" clip-path="url(#clipPath2)"/>
      <path fill="none" stroke-width="5" d="M360 495 L360 525" clip-path="url(#clipPath2)"/>
      <path fill="none" stroke-width="5" d="M253.4164 486.7082 L346.5836 533.2918" clip-path="url(#clipPath2)"/>
      <path fill="none" stroke-width="5" d="M345 540 L255 540" clip-path="url(#clipPath2)"/>
      <path fill="none" stroke-width="5" d="M589.3934 409.3934 L550.6066 370.6066" clip-path="url(#clipPath2)"/>
      <path fill="none" stroke-width="5" d="M486.7082 466.5836 L533.2918 373.4164" clip-path="url(#clipPath2)"/>
      <path fill="none" stroke-width="5" d="M525 360 L495 360" clip-path="url(#clipPath2)"/>
      <path fill="none" stroke-width="5" d="M533.2918 346.5836 L486.7082 253.4164" clip-path="url(#clipPath2)"/>
      <path fill="none" stroke-width="5" d="M600 405 L600 315" clip-path="url(#clipPath2)"/>
      <path fill="none" stroke-width="5" d="M653.2918 193.4164 L606.7082 286.5836" clip-path="url(#clipPath2)"/>
      <path fill="none" stroke-width="5" d="M606.7082 406.5836 L653.2918 313.4164" clip-path="url(#clipPath2)"/>
      <path fill="none" stroke-width="5" d="M615 300 L645 300" clip-path="url(#clipPath2)"/>
      <path fill="none" stroke-width="5" d="M615 420 L705 420" clip-path="url(#clipPath2)"/>
      <path fill="none" stroke-width="5" d="M666.7082 313.4164 L713.2918 406.5836" clip-path="url(#clipPath2)"/>
      <path fill="none" stroke-width="5" d="M610.6066 430.6066 L649.3934 469.3934" clip-path="url(#clipPath2)"/>
      <path fill="none" stroke-width="5" d="M709.3934 430.6066 L670.6066 469.3934" clip-path="url(#clipPath2)"/>
      <path fill="none" stroke-width="5" d="M589.3934 430.6066 L550.6066 469.3934" clip-path="url(#clipPath2)"/>
      <path fill="none" stroke-width="5" d="M525 480 L495 480" clip-path="url(#clipPath2)"/>
      <path fill="none" stroke-width="5" d="M769.3934 289.3934 L730.6066 250.6066" clip-path="url(#clipPath2)"/>
      <path fill="none" stroke-width="5" d="M670.6066 190.6066 L709.3934 229.3934" clip-path="url(#clipPath2)"/>
      <path fill="none" stroke-width="5" d="M780 315 L780 345" clip-path="url(#clipPath2)"/>
      <path fill="none" stroke-width="5" d="M730.6066 409.3934 L769.3934 370.6066" clip-path="url(#clipPath2)"/>
      <path fill="none" stroke-width="5" d="M780 285 L780 195" clip-path="url(#clipPath2)"/>
      <path fill="none" stroke-width="5" d="M730.6066 529.3934 L769.3934 490.6066" clip-path="url(#clipPath2)"/>
      <path fill="none" stroke-width="5" d="M675 480 L765 480" clip-path="url(#clipPath2)"/>
      <path fill="none" stroke-width="5" d="M730.6066 550.6066 L769.3934 589.3934" clip-path="url(#clipPath2)"/>
      <path fill="none" stroke-width="5" d="M709.3934 550.6066 L670.6066 589.3934" clip-path="url(#clipPath2)"/>
      <path fill="none" stroke-width="5" d="M660 585 L660 495" clip-path="url(#clipPath2)"/>
      <path fill="none" stroke-width="5" d="M649.3934 589.3934 L550.6066 490.6066" clip-path="url(#clipPath2)"/>
      <path fill="none" stroke-width="5" d="M430.6066 589.3934 L469.3934 550.6066" clip-path="url(#clipPath2)"/>
      <path fill="none" stroke-width="5" d="M529.3934 490.6066 L490.6066 529.3934" clip-path="url(#clipPath2)"/>
      <path fill="none" stroke-width="5" d="M375 540 L465 540" clip-path="url(#clipPath2)"/>
      <path fill="none" stroke-width="5" d="M480 495 L480 525" clip-path="url(#clipPath2)"/>
      <path fill="none" stroke-width="5" d="M405 600 L375 600" clip-path="url(#clipPath2)"/>
      <path fill="none" stroke-width="5" d="M360 555 L360 585.0312" clip-path="url(#clipPath2)"/>
      <path fill="none" stroke-width="5" d="M373.4164 593.2918 L466.5836 546.7082" clip-path="url(#clipPath2)"/>
      <path fill="none" stroke-width="5" d="M435 600 L525 600" clip-path="url(#clipPath2)"/>
      <path fill="none" stroke-width="5" d="M540 585 L540 495" clip-path="url(#clipPath2)"/>
      <path fill="none" stroke-width="5" d="M420 615 L420 645" clip-path="url(#clipPath2)"/>
      <path fill="none" stroke-width="5" d="M409.3934 649.3934 L370.6066 610.6066" clip-path="url(#clipPath2)"/>
      <path fill="none" stroke-width="5" d="M250.6066 709.3934 L289.3934 670.6066" clip-path="url(#clipPath2)"/>
      <path fill="none" stroke-width="5" d="M246.7082 553.4164 L293.2918 646.5836" clip-path="url(#clipPath2)"/>
      <path fill="none" stroke-width="5" d="M349.3934 610.6066 L310.6066 649.3934" clip-path="url(#clipPath2)"/>
      <path fill="none" stroke-width="5" d="M193.4164 606.7082 L286.5836 653.2918" clip-path="url(#clipPath2)"/>
      <path fill="none" stroke-width="5" d="M229.3934 709.3934 L190.6066 670.6066" clip-path="url(#clipPath2)"/>
      <path fill="none" stroke-width="5" d="M180 615 L180 645" clip-path="url(#clipPath2)"/>
      <path fill="none" stroke-width="5" d="M250.6066 730.6066 L289.3934 769.3934" clip-path="url(#clipPath2)"/>
      <path fill="none" stroke-width="5" d="M300 765 L300 675" clip-path="url(#clipPath2)"/>
      <path fill="none" stroke-width="5" d="M469.3934 769.3934 L430.6066 730.6066" clip-path="url(#clipPath2)"/>
      <path fill="none" stroke-width="5" d="M366.7082 613.4164 L413.2918 706.5836" clip-path="url(#clipPath2)"/>
      <path fill="none" stroke-width="5" d="M313.4164 773.2918 L406.5836 726.7082" clip-path="url(#clipPath2)"/>
      <path fill="none" stroke-width="5" d="M313.4164 666.7082 L406.5836 713.2918" clip-path="url(#clipPath2)"/>
      <path fill="none" stroke-width="5" d="M490.6066 769.3934 L529.3934 730.6066" clip-path="url(#clipPath2)"/>
      <path fill="none" stroke-width="5" d="M540 615 L540 705" clip-path="url(#clipPath2)"/>
      <path fill="none" stroke-width="5" d="M526.5836 713.2918 L433.4164 666.7082" clip-path="url(#clipPath2)"/>
      <path fill="none" stroke-width="5" d="M495 780 L525 780" clip-path="url(#clipPath2)"/>
      <path fill="none" stroke-width="5" d="M600 675 L600 705" clip-path="url(#clipPath2)"/>
      <path fill="none" stroke-width="5" d="M589.3934 730.6066 L550.6066 769.3934" clip-path="url(#clipPath2)"/>
      <path fill="none" stroke-width="5" d="M615 660 L645 660" clip-path="url(#clipPath2)"/>
      <path fill="none" stroke-width="5" d="M660 615 L660 645" clip-path="url(#clipPath2)"/>
      <path fill="none" stroke-width="5" d="M766.5836 606.7082 L673.4164 653.2918" clip-path="url(#clipPath2)"/>
      <path fill="none" stroke-width="5" d="M649.3934 670.6066 L610.6066 709.3934" clip-path="url(#clipPath2)"/>
      <path fill="none" stroke-width="5" d="M600 645 L600 615" clip-path="url(#clipPath2)"/>
      <path fill="none" stroke-width="5" d="M585 600 L555 600" clip-path="url(#clipPath2)"/>
      <path fill="none" stroke-width="5" d="M730.6066 709.3934 L769.3934 670.6066" clip-path="url(#clipPath2)"/>
      <path fill="none" stroke-width="5" d="M780 615 L780 645" clip-path="url(#clipPath2)"/>
      <path fill="none" stroke-width="5" d="M765 660 L675 660" clip-path="url(#clipPath2)"/>
      <path fill="none" stroke-width="5" d="M730.6066 730.6066 L769.3934 769.3934" clip-path="url(#clipPath2)"/>
      <path fill="none" stroke-width="5" d="M709.3934 730.6066 L670.6066 769.3934" clip-path="url(#clipPath2)"/>
      <path fill="none" stroke-width="5" d="M555 780 L645 780" clip-path="url(#clipPath2)"/>
      <path fill="none" stroke-width="5" d="M135 840 L165 840" clip-path="url(#clipPath2)"/>
      <path fill="none" stroke-width="5" d="M286.5836 786.7082 L193.4164 833.2918" clip-path="url(#clipPath2)"/>
      <path fill="none" stroke-width="5" d="M120 825 L120 795" clip-path="url(#clipPath2)"/>
      <path fill="none" stroke-width="5" d="M173.2918 673.4164 L126.7082 766.5836" clip-path="url(#clipPath2)"/>
      <path fill="none" stroke-width="5" d="M62.9417 494.7087 L117.0583 765.2913" clip-path="url(#clipPath2)"/>
      <path fill="none" stroke-width="5" d="M113.2918 853.4164 L66.7082 946.5836" clip-path="url(#clipPath2)"/>
      <path fill="none" stroke-width="5" d="M60 945 L60 495" clip-path="url(#clipPath2)"/>
      <path fill="none" stroke-width="5" d="M130.6066 850.6066 L169.3934 889.3934" clip-path="url(#clipPath2)"/>
      <path fill="none" stroke-width="5" d="M180 885 L180 855" clip-path="url(#clipPath2)"/>
      <path fill="none" stroke-width="5" d="M225 960 L195 960" clip-path="url(#clipPath2)"/>
      <path fill="none" stroke-width="5" d="M75 960 L165 960" clip-path="url(#clipPath2)"/>
      <path fill="none" stroke-width="5" d="M180 915 L180 945" clip-path="url(#clipPath2)"/>
      <path fill="none" stroke-width="5" d="M250.6066 949.3934 L289.3934 910.6066" clip-path="url(#clipPath2)"/>
      <path fill="none" stroke-width="5" d="M300 885 L300 795" clip-path="url(#clipPath2)"/>
      <path fill="none" stroke-width="5" d="M255 960 L285 960" clip-path="url(#clipPath2)"/>
      <path fill="none" stroke-width="5" d="M120 855 L120 885" clip-path="url(#clipPath2)"/>
      <path fill="none" stroke-width="5" d="M70.6066 949.3934 L109.3934 910.6066" clip-path="url(#clipPath2)"/>
      <path fill="none" stroke-width="5" d="M135 900 L165 900" clip-path="url(#clipPath2)"/>
      <path fill="none" stroke-width="5" d="M240 945 L240 915" clip-path="url(#clipPath2)"/>
      <path fill="none" stroke-width="5" d="M190.6066 850.6066 L229.3934 889.3934" clip-path="url(#clipPath2)"/>
      <path fill="none" stroke-width="5" d="M246.7082 886.5836 L293.2918 793.4164" clip-path="url(#clipPath2)"/>
      <path fill="none" stroke-width="5" d="M360 885 L360 855" clip-path="url(#clipPath2)"/>
      <path fill="none" stroke-width="5" d="M413.2918 733.4164 L366.7082 826.5836" clip-path="url(#clipPath2)"/>
      <path fill="none" stroke-width="5" d="M310.6066 889.3934 L349.3934 850.6066" clip-path="url(#clipPath2)"/>
      <path fill="none" stroke-width="5" d="M310.6066 790.6066 L349.3934 829.3934" clip-path="url(#clipPath2)"/>
      <path fill="none" stroke-width="5" d="M370.6066 889.3934 L409.3934 850.6066" clip-path="url(#clipPath2)"/>
      <path fill="none" stroke-width="5" d="M526.5836 786.7082 L433.4164 833.2918" clip-path="url(#clipPath2)"/>
      <path fill="none" stroke-width="5" d="M375 900 L405 900" clip-path="url(#clipPath2)"/>
      <path fill="none" stroke-width="5" d="M420 855 L420 885" clip-path="url(#clipPath2)"/>
      <path fill="none" stroke-width="5" d="M360 915 L360 945" clip-path="url(#clipPath2)"/>
      <path fill="none" stroke-width="5" d="M409.3934 910.6066 L370.6066 949.3934" clip-path="url(#clipPath2)"/>
      <path fill="none" stroke-width="5" d="M315 960 L345 960" clip-path="url(#clipPath2)"/>
      <path fill="none" stroke-width="5" d="M585 900 L555 900" clip-path="url(#clipPath2)"/>
      <path fill="none" stroke-width="5" d="M649.3934 790.6066 L550.6066 889.3934" clip-path="url(#clipPath2)"/>
      <path fill="none" stroke-width="5" d="M433.4164 846.7082 L526.5836 893.2918" clip-path="url(#clipPath2)"/>
      <path fill="none" stroke-width="5" d="M525 900 L435 900" clip-path="url(#clipPath2)"/>
      <path fill="none" stroke-width="5" d="M525.7698 904.7434 L374.2303 955.2566" clip-path="url(#clipPath2)"/>
      <path fill="none" stroke-width="5" d="M615 900 L645 900" clip-path="url(#clipPath2)"/>
      <path fill="none" stroke-width="5" d="M660 885 L660 795" clip-path="url(#clipPath2)"/>
      <path fill="none" stroke-width="5" d="M670.6066 889.3934 L769.3934 790.6066" clip-path="url(#clipPath2)"/>
      <path fill="none" stroke-width="5" d="M610.6066 910.6066 L649.3934 949.3934" clip-path="url(#clipPath2)"/>
      <path fill="none" stroke-width="5" d="M375 960 L645 960" clip-path="url(#clipPath2)"/>
      <path fill="none" stroke-width="5" d="M829.3934 949.3934 L790.6066 910.6066" clip-path="url(#clipPath2)"/>
      <path fill="none" stroke-width="5" d="M675 900 L765 900" clip-path="url(#clipPath2)"/>
      <path fill="none" stroke-width="5" d="M840 945 L840 855" clip-path="url(#clipPath2)"/>
      <path fill="none" stroke-width="5" d="M829.3934 850.6066 L790.6066 889.3934" clip-path="url(#clipPath2)"/>
      <path fill="none" stroke-width="5" d="M855 960 L885 960" clip-path="url(#clipPath2)"/>
      <path fill="none" stroke-width="5" d="M825 960 L795 960" clip-path="url(#clipPath2)"/>
      <path fill="none" stroke-width="5" d="M780 915 L780 945" clip-path="url(#clipPath2)"/>
      <path fill="none" stroke-width="5" d="M765 960 L675 960" clip-path="url(#clipPath2)"/>
      <path fill="none" stroke-width="5" d="M966.7082 853.4164 L1013.2918 946.5836" clip-path="url(#clipPath2)"/>
      <path fill="none" stroke-width="5" d="M915 960 L1005 960" clip-path="url(#clipPath2)"/>
      <path fill="none" stroke-width="5" d="M960 825 L960 795" clip-path="url(#clipPath2)"/>
      <path fill="none" stroke-width="5" d="M795 780 L945 780" clip-path="url(#clipPath2)"/>
      <path fill="none" stroke-width="5" d="M945 840 L915 840" clip-path="url(#clipPath2)"/>
      <path fill="none" stroke-width="5" d="M1009.3934 949.3934 L910.6066 850.6066" clip-path="url(#clipPath2)"/>
      <path fill="none" stroke-width="5" d="M885 840 L855 840" clip-path="url(#clipPath2)"/>
      <path fill="none" stroke-width="5" d="M900 855 L900 945" clip-path="url(#clipPath2)"/>
      <path fill="none" stroke-width="5" d="M900 495 L900 525" clip-path="url(#clipPath2)"/>
      <path fill="none" stroke-width="5" d="M793.4164 593.2918 L886.5836 546.7082" clip-path="url(#clipPath2)"/>
      <path fill="none" stroke-width="5" d="M886.5836 533.2918 L793.4164 486.7082" clip-path="url(#clipPath2)"/>
      <path fill="none" stroke-width="5" d="M915 480 L945 480" clip-path="url(#clipPath2)"/>
      <path fill="none" stroke-width="5" d="M1020 315 L1020 345" clip-path="url(#clipPath2)"/>
      <path fill="none" stroke-width="5" d="M1013.2918 373.4164 L966.7082 466.5836" clip-path="url(#clipPath2)"/>
      <path fill="none" stroke-width="5" d="M1006.5836 293.2918 L913.4164 246.7082" clip-path="url(#clipPath2)"/>
      <path fill="none" stroke-width="5" d="M1020 285 L1020 255" clip-path="url(#clipPath2)"/>
      <path fill="none" stroke-width="5" d="M1005.7698 304.7434 L854.2302 355.2566" clip-path="url(#clipPath2)"/>
      <path fill="none" stroke-width="5" d="M893.2918 253.4164 L846.7082 346.5836" clip-path="url(#clipPath2)"/>
      <path fill="none" stroke-width="5" d="M825 360 L795 360" clip-path="url(#clipPath2)"/>
      <path fill="none" stroke-width="5" d="M850.6066 370.6066 L949.3934 469.3934" clip-path="url(#clipPath2)"/>
      <path fill="none" stroke-width="5" d="M833.2918 373.4164 L786.7082 466.5836" clip-path="url(#clipPath2)"/>
      <path fill="none" stroke-width="5" d="M1005 300 L915 300" clip-path="url(#clipPath2)"/>
      <path fill="none" stroke-width="5" d="M1005 60 L855 60" clip-path="url(#clipPath2)"/>
      <path fill="none" stroke-width="5" d="M825 60 L675 60" clip-path="url(#clipPath2)"/>
      <path fill="none" stroke-width="5" d="M833.2918 73.4164 L786.7082 166.5836" clip-path="url(#clipPath2)"/>
      <path fill="none" stroke-width="5" d="M1020 75 L1020 165" clip-path="url(#clipPath2)"/>
      <path fill="none" stroke-width="5" d="M795 180 L1005 180" clip-path="url(#clipPath2)"/>
      <path fill="none" stroke-width="5" d="M1020 225 L1020 195" clip-path="url(#clipPath2)"/>
      <path fill="none" stroke-width="5" d="M1006.5836 186.7082 L913.4164 233.2918" clip-path="url(#clipPath2)"/>
      <path fill="none" stroke-width="5" d="M1005 600 L975 600" clip-path="url(#clipPath2)"/>
      <path fill="none" stroke-width="5" d="M960 495 L960 585" clip-path="url(#clipPath2)"/>
      <path fill="none" stroke-width="5" d="M910.6066 550.6066 L949.3934 589.3934" clip-path="url(#clipPath2)"/>
      <path fill="none" stroke-width="5" d="M790.6066 769.3934 L949.3934 610.6066" clip-path="url(#clipPath2)"/>
      <path fill="none" stroke-width="5" d="M945.7698 604.7434 L794.2302 655.2566" clip-path="url(#clipPath2)"/>
      <path fill="none" stroke-width="5" d="M1020 615 L1020 705" clip-path="url(#clipPath2)"/>
      <path fill="none" stroke-width="5" d="M970.6066 769.3934 L1009.3934 730.6066" clip-path="url(#clipPath2)"/>
      <path fill="none" stroke-width="5" d="M1013.2918 706.5836 L966.7082 613.4164" clip-path="url(#clipPath2)"/>
      <path fill="none" stroke-width="5" d="M1020 735 L1020 945" clip-path="url(#clipPath2)"/>
      <path fill="none" stroke-width="5" d="M1005.4479 723.6381 L794.5521 776.3619" clip-path="url(#clipPath2)"/>
      <path fill="none" stroke-width="5" d="M1020 495 L1020 585" clip-path="url(#clipPath2)"/>
      <path fill="none" stroke-width="5" d="M1020 465 L1020 375" clip-path="url(#clipPath2)"/>
    </g>
  </g>
</svg>
