<?xml version="1.0" standalone="no"?>
<!DOCTYPE svg PUBLIC "-//W3C//DTD SVG 1.1//EN"
   "http://www.w3.org/Graphics/SVG/1.1/DTD/svg11.dtd">
<svg width="290" height="118" version="1.1"
   xmlns="http://www.w3.org/2000/svg">
   <g id="barcode" fill="#000000">
      <rect x="0" y="0" width="290" height="118" fill="#FFFFFF" />
      <rect x="0.00" y="0.00" width="4.00" height="100.00" />
      <rect x="6.00" y="0.00" width="2.00" height="100.00" />
      <rect x="12.00" y="0.00" width="2.00" height="100.00" />
      <rect x="22.00" y="0.00" width="2.00" height="100.00" />
      <rect x="26.00" y="0.00" width="2.00" height="100.00" />
      <rect x="34.00" y="0.00" width="4.00" height="100.00" />
      <rect x="44.00" y="0.00" width="2.00" height="100.00" />
      <rect x="52.00" y="0.00" width="2.00" height="100.00" />
      <rect x="56.00" y="0.00" width="4.00" height="100.00" />
      <rect x="66.00" y="0.00" width="2.00" height="100.00" />
      <rect x="74.00" y="0.00" width="6.00" height="100.00" />
      <rect x="82.00" y="0.00" width="4.00" height="100.00" />
      <rect x="88.00" y="0.00" width="4.00" height="100.00" />
      <rect x="94.00" y="0.00" width="6.00" height="100.00" />
      <rect x="102.00" y="0.00" width="6.00" height="100.00" />
      <rect x="110.00" y="0.00" width="4.00" height="100.00" />
      <rect x="116.00" y="0.00" width="6.00" height="100.00" />
      <rect x="128.00" y="0.00" width="2.00" height="100.00" />
      <rect x="132.00" y="0.00" width="4.00" height="100.00" />
      <rect x="138.00" y="0.00" width="4.00" height="100.00" />
      <rect x="146.00" y="0.00" width="4.00" height="100.00" />
      <rect x="154.00" y="0.00" width="4.00" height="100.00" />
      <rect x="160.00" y="0.00" width="6.00" height="100.00" />
      <rect x="172.00" y="0.00" width="2.00" height="100.00" />
      <rect x="176.00" y="0.00" width="4.00" height="100.00" />
      <rect x="186.00" y="0.00" width="2.00" height="100.00" />
      <rect x="190.00" y="0.00" width="2.00" height="100.00" />
      <rect x="198.00" y="0.00" width="4.00" height="100.00" />
      <rect x="208.00" y="0.00" width="2.00" height="100.00" />
      <rect x="216.00" y="0.00" width="2.00" height="100.00" />
      <rect x="220.00" y="0.00" width="4.00" height="100.00" />
      <rect x="226.00" y="0.00" width="6.00" height="100.00" />
      <rect x="234.00" y="0.00" width="2.00" height="100.00" />
      <rect x="242.00" y="0.00" width="2.00" height="100.00" />
      <rect x="246.00" y="0.00" width="4.00" height="100.00" />
      <rect x="254.00" y="0.00" width="6.00" height="100.00" />
      <rect x="264.00" y="0.00" width="4.00" height="100.00" />
      <rect x="274.00" y="0.00" width="6.00" height="100.00" />
      <rect x="282.00" y="0.00" width="2.00" height="100.00" />
      <rect x="286.00" y="0.00" width="4.00" height="100.00" />
   </g>
</svg>
