<?xml version="1.0" standalone="no"?>
<!DOCTYPE svg PUBLIC "-//W3C//DTD SVG 1.1//EN"
   "http://www.w3.org/Graphics/SVG/1.1/DTD/svg11.dtd">
<svg width="356" height="118" version="1.1"
   xmlns="http://www.w3.org/2000/svg">
   <g id="barcode" fill="#000000">
      <rect x="0" y="0" width="356" height="118" fill="#FFFFFF" />
      <rect x="0.00" y="0.00" width="4.00" height="100.00" />
      <rect x="6.00" y="0.00" width="2.00" height="100.00" />
      <rect x="12.00" y="0.00" width="2.00" height="100.00" />
      <rect x="22.00" y="0.00" width="2.00" height="100.00" />
      <rect x="30.00" y="0.00" width="4.00" height="100.00" />
      <rect x="40.00" y="0.00" width="2.00" height="100.00" />
      <rect x="44.00" y="0.00" width="4.00" height="100.00" />
      <rect x="54.00" y="0.00" width="2.00" height="100.00" />
      <rect x="62.00" y="0.00" width="2.00" height="100.00" />
      <rect x="66.00" y="0.00" width="2.00" height="100.00" />
      <rect x="70.00" y="0.00" width="6.00" height="100.00" />
      <rect x="82.00" y="0.00" width="4.00" height="100.00" />
      <rect x="88.00" y="0.00" width="2.00" height="100.00" />
      <rect x="92.00" y="0.00" width="4.00" height="100.00" />
      <rect x="102.00" y="0.00" width="2.00" height="100.00" />
      <rect x="110.00" y="0.00" width="4.00" height="100.00" />
      <rect x="116.00" y="0.00" width="4.00" height="100.00" />
      <rect x="124.00" y="0.00" width="4.00" height="100.00" />
      <rect x="132.00" y="0.00" width="2.00" height="100.00" />
      <rect x="140.00" y="0.00" width="6.00" height="100.00" />
      <rect x="148.00" y="0.00" width="4.00" height="100.00" />
      <rect x="154.00" y="0.00" width="4.00" height="100.00" />
      <rect x="160.00" y="0.00" width="6.00" height="100.00" />
      <rect x="168.00" y="0.00" width="6.00" height="100.00" />
      <rect x="176.00" y="0.00" width="4.00" height="100.00" />
      <rect x="182.00" y="0.00" width="6.00" height="100.00" />
      <rect x="194.00" y="0.00" width="2.00" height="100.00" />
      <rect x="198.00" y="0.00" width="4.00" height="100.00" />
      <rect x="204.00" y="0.00" width="4.00" height="100.00" />
      <rect x="212.00" y="0.00" width="4.00" height="100.00" />
      <rect x="220.00" y="0.00" width="6.00" height="100.00" />
      <rect x="228.00" y="0.00" width="2.00" height="100.00" />
      <rect x="236.00" y="0.00" width="4.00" height="100.00" />
      <rect x="242.00" y="0.00" width="4.00" height="100.00" />
      <rect x="252.00" y="0.00" width="2.00" height="100.00" />
      <rect x="256.00" y="0.00" width="2.00" height="100.00" />
      <rect x="264.00" y="0.00" width="2.00" height="100.00" />
      <rect x="268.00" y="0.00" width="2.00" height="100.00" />
      <rect x="276.00" y="0.00" width="4.00" height="100.00" />
      <rect x="286.00" y="0.00" width="4.00" height="100.00" />
      <rect x="292.00" y="0.00" width="6.00" height="100.00" />
      <rect x="304.00" y="0.00" width="2.00" height="100.00" />
      <rect x="308.00" y="0.00" width="4.00" height="100.00" />
      <rect x="318.00" y="0.00" width="4.00" height="100.00" />
      <rect x="324.00" y="0.00" width="4.00" height="100.00" />
      <rect x="330.00" y="0.00" width="4.00" height="100.00" />
      <rect x="340.00" y="0.00" width="6.00" height="100.00" />
      <rect x="348.00" y="0.00" width="2.00" height="100.00" />
      <rect x="352.00" y="0.00" width="4.00" height="100.00" />
   </g>
</svg>
