<?xml version="1.0" standalone="no"?>
<!DOCTYPE svg PUBLIC "-//W3C//DTD SVG 1.1//EN"
   "http://www.w3.org/Graphics/SVG/1.1/DTD/svg11.dtd">
<svg width="510" height="100" version="1.1"
   xmlns="http://www.w3.org/2000/svg">
   <g id="barcode" fill="#000000">
      <rect x="0" y="0" width="510" height="100" fill="#FFFFFF" />
      <rect x="0.00" y="0.00" width="4.00" height="100.00" />
      <rect x="6.00" y="0.00" width="2.00" height="100.00" />
      <rect x="12.00" y="0.00" width="2.00" height="100.00" />
      <rect x="22.00" y="0.00" width="2.00" height="100.00" />
      <rect x="28.00" y="0.00" width="6.00" height="100.00" />
      <rect x="38.00" y="0.00" width="4.00" height="100.00" />
      <rect x="44.00" y="0.00" width="2.00" height="100.00" />
      <rect x="50.00" y="0.00" width="6.00" height="100.00" />
      <rect x="60.00" y="0.00" width="4.00" height="100.00" />
      <rect x="66.00" y="0.00" width="2.00" height="100.00" />
      <rect x="72.00" y="0.00" width="6.00" height="100.00" />
      <rect x="80.00" y="0.00" width="4.00" height="100.00" />
      <rect x="88.00" y="0.00" width="4.00" height="100.00" />
      <rect x="94.00" y="0.00" width="4.00" height="100.00" />
      <rect x="102.00" y="0.00" width="4.00" height="100.00" />
      <rect x="110.00" y="0.00" width="6.00" height="100.00" />
      <rect x="118.00" y="0.00" width="4.00" height="100.00" />
      <rect x="124.00" y="0.00" width="6.00" height="100.00" />
      <rect x="132.00" y="0.00" width="4.00" height="100.00" />
      <rect x="140.00" y="0.00" width="6.00" height="100.00" />
      <rect x="150.00" y="0.00" width="2.00" height="100.00" />
      <rect x="154.00" y="0.00" width="4.00" height="100.00" />
      <rect x="160.00" y="0.00" width="4.00" height="100.00" />
      <rect x="168.00" y="0.00" width="4.00" height="100.00" />
      <rect x="176.00" y="0.00" width="4.00" height="100.00" />
      <rect x="182.00" y="0.00" width="6.00" height="100.00" />
      <rect x="192.00" y="0.00" width="2.00" height="100.00" />
      <rect x="198.00" y="0.00" width="4.00" height="100.00" />
      <rect x="204.00" y="0.00" width="6.00" height="100.00" />
      <rect x="214.00" y="0.00" width="2.00" height="100.00" />
      <rect x="220.00" y="0.00" width="4.00" height="100.00" />
      <rect x="226.00" y="0.00" width="4.00" height="100.00" />
      <rect x="234.00" y="0.00" width="4.00" height="100.00" />
      <rect x="242.00" y="0.00" width="2.00" height="100.00" />
      <rect x="248.00" y="0.00" width="6.00" height="100.00" />
      <rect x="258.00" y="0.00" width="4.00" height="100.00" />
      <rect x="264.00" y="0.00" width="2.00" height="100.00" />
      <rect x="270.00" y="0.00" width="6.00" height="100.00" />
      <rect x="280.00" y="0.00" width="4.00" height="100.00" />
      <rect x="286.00" y="0.00" width="2.00" height="100.00" />
      <rect x="292.00" y="0.00" width="6.00" height="100.00" />
      <rect x="302.00" y="0.00" width="4.00" height="100.00" />
      <rect x="308.00" y="0.00" width="4.00" height="100.00" />
      <rect x="314.00" y="0.00" width="4.00" height="100.00" />
      <rect x="322.00" y="0.00" width="4.00" height="100.00" />
      <rect x="330.00" y="0.00" width="2.00" height="100.00" />
      <rect x="336.00" y="0.00" width="6.00" height="100.00" />
      <rect x="346.00" y="0.00" width="4.00" height="100.00" />
      <rect x="352.00" y="0.00" width="2.00" height="100.00" />
      <rect x="358.00" y="0.00" width="6.00" height="100.00" />
      <rect x="366.00" y="0.00" width="4.00" height="100.00" />
      <rect x="374.00" y="0.00" width="4.00" height="100.00" />
      <rect x="382.00" y="0.00" width="2.00" height="100.00" />
      <rect x="388.00" y="0.00" width="6.00" height="100.00" />
      <rect x="396.00" y="0.00" width="4.00" height="100.00" />
      <rect x="402.00" y="0.00" width="4.00" height="100.00" />
      <rect x="410.00" y="0.00" width="4.00" height="100.00" />
      <rect x="418.00" y="0.00" width="4.00" height="100.00" />
      <rect x="426.00" y="0.00" width="6.00" height="100.00" />
      <rect x="434.00" y="0.00" width="2.00" height="100.00" />
      <rect x="440.00" y="0.00" width="4.00" height="100.00" />
      <rect x="448.00" y="0.00" width="6.00" height="100.00" />
      <rect x="456.00" y="0.00" width="2.00" height="100.00" />
      <rect x="462.00" y="0.00" width="2.00" height="100.00" />
      <rect x="468.00" y="0.00" width="4.00" height="100.00" />
      <rect x="476.00" y="0.00" width="6.00" height="100.00" />
      <rect x="484.00" y="0.00" width="4.00" height="100.00" />
      <rect x="494.00" y="0.00" width="6.00" height="100.00" />
      <rect x="502.00" y="0.00" width="2.00" height="100.00" />
      <rect x="506.00" y="0.00" width="4.00" height="100.00" />
   </g>
</svg>
